<svg viewBox="0 0 400 512" xmlns="http://www.w3.org/2000/svg"><path d="m0 0v419.74l199.77 92.26 200.23-92.26v-419.74z" fill="#c9c9c9"/><g fill="#fff"><path d="m0 0h100v100h-100z"/><path d="m100 100h100v100h-100z"/><path d="m0 200h100v100h-100z"/><path d="m200 0h100v100h-100z"/><path d="m300 100h100v100h-100z"/><path d="m200 200h100v100h-100z"/><path d="m100 300h100v100h-100z"/><path d="m300 300h100v100h-100z"/><path d="m0 400v19.74l100 46.18v-65.92z"/><path d="m200 400v100h25.81l74.19-34.18v-65.82z"/><path d="m173.78 500 25.99 12 .23-.11v-11.89z"/></g></svg>