<svg viewBox="0 0 400 512" xmlns="http://www.w3.org/2000/svg"><path d="m0 0v419.74l199.77 92.26 200.23-92.26v-419.74z" fill="#2d2d2d"/><g fill="#fff"><path d="m291.8 133.59a68.54 68.54 0 0 1 -2.89 20.88 62.48 62.48 0 0 1 -8.16 16.53 81.44 81.44 0 0 1 -12.67 14.22q-7.43 6.67-16.84 13.86c-3.86 3.12-7.07 5.89-9.6 8.28a33.26 33.26 0 0 0 -6 7.38 27.63 27.63 0 0 0 -3.07 7.92 46.64 46.64 0 0 0 -.91 9.9v9.44h-56.14v-13.73a70.93 70.93 0 0 1 1.8-16.74 49.92 49.92 0 0 1 5.4-13.5 72.82 72.82 0 0 1 8.82-11.88 135.7 135.7 0 0 1 12.46-11.88l11.88-11.16a70.45 70.45 0 0 0 10.44-11.34 23.5 23.5 0 0 0 4.32-14.22q0-11.51-7-18.36t-19.26-6.84q-15.12 0-22.68 10.26a42.26 42.26 0 0 0 -8.28 23.22l-57.24-6.12q2.16-19.44 9.9-34.2a75.63 75.63 0 0 1 19.92-24.51 85.14 85.14 0 0 1 27.74-14.58 109.22 109.22 0 0 1 32.84-4.86 121.18 121.18 0 0 1 31.6 4.14 80.58 80.58 0 0 1 27.26 13 65.91 65.91 0 0 1 19.14 22.5q7.21 13.69 7.22 32.39zm-52.92 159.12a32.71 32.71 0 0 1 -10.08 24.29q-10.08 9.9-24.84 9.9a36 36 0 0 1 -13.5-2.52 34 34 0 0 1 -11.16-7.2 36.11 36.11 0 0 1 -7.74-10.8 30.82 30.82 0 0 1 -2.88-13.32 33.09 33.09 0 0 1 2.7-13.14 33.48 33.48 0 0 1 7.56-11 36.48 36.48 0 0 1 11.34-7.38 35.21 35.21 0 0 1 13.68-2.7 33.91 33.91 0 0 1 13.5 2.7 39 39 0 0 1 11.16 7.2 31.55 31.55 0 0 1 7.56 10.8 33.09 33.09 0 0 1 2.7 13.17z"/><path d="m0 339.02v39.92l199.77 92.26 200.23-92.26v-39.92l-200.23 92.26z"/></g></svg>