<svg viewBox="0 0 400 512" xmlns="http://www.w3.org/2000/svg"><path d="m0 0v419.742l199.77 92.258 200.23-92.258v-419.742z" fill="#96cc00"/><g fill="#fff"><path d="m0 339.025v39.915l199.77 92.258 200.23-92.258v-39.915l-200.23 92.257z"/><path d="m340.577 126.894c-57.28-5.331-120.337 13.476-130.754 77.204-1.458-4.567-3.766-10.65-5.742-15.131-2.544-4.22-2.962-8.324-2.622-13.171-.147-5.746-.724-11.471-1.755-17.155-13.946-70.175-71.933-104.657-140.636-89.075 7.572 73.362 49.315 136.056 130.047 128.252 12.01 34.093 11.115 72.158 5.716 107.283l-1.21 7.856c-1.876 9.509 9.91 16.711 17.501 10.735 6.419-4.665 4.578-14.803 6.297-22.597 2.319-24.064 2.428-49.27-1.82-73.321 19.587 5.891 40.838 3.809 59.849-3.424 57.526-16.551 67.674-89.318 65.128-97.456z"/></g></svg>