<svg viewBox="0 0 400 512" xmlns="http://www.w3.org/2000/svg"><path d="m0 0v419.74l199.77 92.26 200.23-92.26v-419.74z" fill="#435f7a"/><g fill="#fff"><path d="m108.2 323.31v-50.31l99.36-89.85a93.82 93.82 0 0 0 15.12-18.33 38.88 38.88 0 0 0 5.76-20.82q0-13.65-8.64-22.1t-23-8.45q-15.12 0-24.66 10.62t-11.38 27.93l-58-7.92a91 91 0 0 1 10.62-34.62 90 90 0 0 1 21.42-25.89 92.61 92.61 0 0 1 29.7-16.31 110.86 110.86 0 0 1 35.5-5.67 125.53 125.53 0 0 1 34.2 4.68 89.24 89.24 0 0 1 29.52 14.4 71.88 71.88 0 0 1 20.7 24.48q7.74 14.77 7.74 34.56a78.88 78.88 0 0 1 -3.6 24.66 81.62 81.62 0 0 1 -9.9 20.34 116.69 116.69 0 0 1 -14.4 17.46q-8.1 8.1-16.74 16l-59 52.56h104v52.56z"/><path d="m0 339.02v39.92l199.77 92.26 200.23-92.26v-39.92l-200.23 92.26z"/></g></svg>