<svg viewBox="0 0 120 120" xmlns="http://www.w3.org/2000/svg" xmlns:xlink="http://www.w3.org/1999/xlink"><linearGradient id="a" gradientUnits="userSpaceOnUse" x1="60" x2="60" y1="60" y2="103.84"><stop offset="0" stop-color="#fff" stop-opacity=".2"/><stop offset="1" stop-color="#fff"/></linearGradient><linearGradient id="b" gradientUnits="userSpaceOnUse" x1="110" x2="10" y1="85" y2="85"><stop offset="0" stop-color="#f5f5f5"/><stop offset=".234" stop-color="#f0f3f2"/><stop offset=".441" stop-color="#c2c3c5"/><stop offset=".786" stop-color="#f9f9f9"/><stop offset=".998" stop-color="#dadbdc"/></linearGradient><linearGradient id="c" x1="10" x2="110" xlink:href="#b" y1="35" y2="35"/><linearGradient id="d" gradientTransform="matrix(-.70710678 -.70710678 .70710678 -.70710678 60 144.853)" x1="60" x2="60" xlink:href="#a" y1="25.009" y2="94.991"/><linearGradient id="e" gradientUnits="userSpaceOnUse" x1="46.56" x2="46.56" y1="78.535" y2="44.553"><stop offset="0" stop-color="#2a385f"/><stop offset="1" stop-color="#15202b"/></linearGradient><linearGradient id="f" x1="69.986" x2="69.986" xlink:href="#e" y1="79.395" y2="43.651"/><linearGradient id="g" x1="59.864" x2="59.864" xlink:href="#b" y1="118.473" y2="62.348"/><path d="m0 0h120v120h-120z" fill="none"/><path d="m29 29h61.999v61.999h-61.999z" fill="#8f1ae2" transform="matrix(-.70710678 .70710678 -.70710678 -.70710678 144.853 60)"/><path d="m16.16 60 43.84 43.84 43.84-43.84z" fill="url(#a)" opacity=".4"/><path d="m103.84 60-43.84 43.84-43.84-43.84h-6.16l50 50 50-50z" fill="url(#b)"/><path d="m60 10-50 50h6.16l43.84-43.84 43.84 43.84h6.16z" fill="url(#c)"/><path d="m35.258 35.258h49.485v49.485h-49.485z" fill="url(#d)" transform="matrix(-.70710678 .70710678 -.70710678 -.70710678 144.853 60)"/><path d="m43.261 78.535v-24.103h-4.51v-9.879h15.618v33.982z" fill="url(#e)"/><path d="m52.832 46.09v30.91h-8.032v-24.1h-4.51v-6.8h12.542m3.074-3.074h-18.692v12.943h4.509v24.1h14.183v-37.053z" fill="#fff"/><path d="m70.007 79.4a13.325 13.325 0 0 1 -10.644-5.059 17.285 17.285 0 0 1 -2.973-5.664 25.3 25.3 0 0 1 0-14.339 17.063 17.063 0 0 1 2.978-5.649 13.765 13.765 0 0 1 4.658-3.709 13.653 13.653 0 0 1 16.605 3.71 17.3 17.3 0 0 1 2.954 5.643 25.361 25.361 0 0 1 0 14.339 17.552 17.552 0 0 1 -2.95 5.658 13.447 13.447 0 0 1 -4.672 3.745 13.593 13.593 0 0 1 -5.956 1.325zm0-25.537a2.02 2.02 0 0 0 -1.235.388 4.209 4.209 0 0 0 -1.172 1.383 9.064 9.064 0 0 0 -.884 2.485 17.37 17.37 0 0 0 0 6.785 9.393 9.393 0 0 0 .891 2.5 4.151 4.151 0 0 0 1.168 1.4 2.029 2.029 0 0 0 1.235.386 2.084 2.084 0 0 0 1.23-.4 3.885 3.885 0 0 0 1.146-1.374 9.907 9.907 0 0 0 .879-2.514 17.452 17.452 0 0 0 0-6.786 9.573 9.573 0 0 0 -.873-2.5 3.919 3.919 0 0 0 -1.152-1.359 2.077 2.077 0 0 0 -1.233-.399z" fill="url(#f)"/><path d="m70.007 45.188a11.868 11.868 0 0 1 9.429 4.468 15.741 15.741 0 0 1 2.685 5.144 23.827 23.827 0 0 1 0 13.4 15.979 15.979 0 0 1 -2.685 5.165 11.837 11.837 0 0 1 -4.136 3.325 12.072 12.072 0 0 1 -14.736-3.32 15.687 15.687 0 0 1 -2.7-5.165 23.779 23.779 0 0 1 0-13.4 15.456 15.456 0 0 1 2.7-5.145 12.2 12.2 0 0 1 4.14-3.3 11.953 11.953 0 0 1 5.308-1.169m0 25.538a3.606 3.606 0 0 0 2.112-.676 5.368 5.368 0 0 0 1.619-1.906 11.392 11.392 0 0 0 1.025-2.911 18.986 18.986 0 0 0 0-7.44 11.038 11.038 0 0 0 -1.025-2.91 5.409 5.409 0 0 0 -1.624-1.886 3.667 3.667 0 0 0 -4.243 0 5.693 5.693 0 0 0 -1.62 1.886 10.556 10.556 0 0 0 -1.044 2.91 18.885 18.885 0 0 0 0 7.44 10.883 10.883 0 0 0 1.044 2.911 5.645 5.645 0 0 0 1.62 1.906 3.571 3.571 0 0 0 2.131.676m0-28.612a15.061 15.061 0 0 0 -6.655 1.479 15.3 15.3 0 0 0 -5.174 4.118 18.6 18.6 0 0 0 -3.253 6.154 26.845 26.845 0 0 0 0 15.276 18.818 18.818 0 0 0 3.244 6.164 15.382 15.382 0 0 0 18.462 4.154 14.949 14.949 0 0 0 5.2-4.169 19.07 19.07 0 0 0 3.213-6.149 26.857 26.857 0 0 0 0-15.276 18.856 18.856 0 0 0 -3.221-6.14 14.934 14.934 0 0 0 -11.821-5.611zm0 25.537a.508.508 0 0 1 -.341-.1 2.679 2.679 0 0 1 -.717-.89 7.9 7.9 0 0 1 -.735-2.087 15.906 15.906 0 0 1 0-6.129 7.575 7.575 0 0 1 .725-2.064 2.706 2.706 0 0 1 .727-.886.5.5 0 0 1 .339-.1.54.54 0 0 1 .346.119 2.427 2.427 0 0 1 .685.838 8.088 8.088 0 0 1 .721 2.094 15.937 15.937 0 0 1 0 6.13 8.389 8.389 0 0 1 -.736 2.123 2.389 2.389 0 0 1 -.674.837.533.533 0 0 1 -.343.115z" fill="#fff"/><path d="m26.225 62.348c-.63 6.261-5.239 4.544-3.068 12.805 5.443-3.159 4.213-7.653 3.068-12.805zm67.277 0c-1.145 5.154-2.379 9.646 3.068 12.805 2.171-8.261-2.438-6.544-3.07-12.805zm-80.381 2.007c1.077 10.125 4.738 13.4 9.6 13.5-.87-9.041-4.221-6.589-9.6-13.5zm93.485 0c-5.378 6.911-8.734 4.459-9.6 13.5 4.858-.104 8.523-3.375 9.6-13.5zm-77.106 6.192c1.125 6.9-4.318 6.376.388 14.618 4.937-4.957 2.323-9.416-.388-14.618zm60.726 0c-2.712 5.2-5.33 9.661-.393 14.618 4.705-8.242-.733-7.718.393-14.618zm-74.218 5.913c4.068 10.557 8.94 13.014 14.183 11.725-3.529-9.451-6.423-5.855-14.183-11.725zm87.706 0c-7.759 5.87-10.649 2.274-14.178 11.725 5.243 1.289 10.111-1.168 14.178-11.725zm-68.661 1.529c3.315 7.025-2.655 8.136 4.9 15.5 3.747-6.808-.411-10.775-4.9-15.5zm49.616 0c-4.489 4.726-8.65 8.692-4.895 15.5 7.55-7.364 1.58-8.475 4.895-15.5zm-41.969 5.936c5.8 6.388-.18 9.509 10.234 14.879 1.778-8.452-3.934-11.316-10.234-14.879zm34.329 0c-6.306 3.563-12.014 6.427-10.235 14.875 10.414-5.37 4.43-8.491 10.234-14.879zm-54.567 4.516c7.577 10.031 13.531 11.159 18.738 8.18-6.665-9.013-8.654-4.287-18.738-8.18zm74.8 0c-10.085 3.893-12.068-.833-18.732 8.18 5.205 2.979 11.154 1.85 18.732-8.18zm-50.908 9.411c-3.435-.013-6.525 1.78-13.638 1.269 11.309 8.2 18 7.463 22.566 2.6-4.066-3.011-6.577-3.863-8.928-3.872zm27.016 0c-2.35.009-4.858.861-8.923 3.872 4.562 4.86 11.257 5.593 22.566-2.6-7.113.511-10.208-1.282-13.643-1.269zm-16.721 4.341c.809.745 1.621 1.44 2.428 2.1-6.524 3.191-15.507 7.452-17.576 7.115l1.713 7.068c-.028-4.433 8.019-6.609 16.786-13.444 8.768 6.837 16.815 9.011 16.786 13.444l1.714-7.068c-2.069.337-11.052-3.923-17.577-7.115.808-.657 1.619-1.352 2.429-2.1-.938.459-2.106 1.036-3.352 1.647-1.245-.611-2.415-1.189-3.352-1.647z" fill="url(#g)"/></svg>