<svg viewBox="0 0 120 120" xmlns="http://www.w3.org/2000/svg" xmlns:xlink="http://www.w3.org/1999/xlink"><linearGradient id="a" gradientUnits="userSpaceOnUse" x1="60" x2="60" y1="60" y2="110"><stop offset="0" stop-color="#fff" stop-opacity=".2"/><stop offset="1" stop-color="#fff"/></linearGradient><linearGradient id="b" gradientTransform="matrix(-.70710678 -.70710678 .70710678 -.70710678 60 144.853)" x1="60" x2="60" xlink:href="#a" y1="25.009" y2="94.991"/><linearGradient id="c" gradientUnits="userSpaceOnUse" x1="59.673" x2="59.673" y1="79.396" y2="43.692"><stop offset="0" stop-color="#2a385f"/><stop offset="1" stop-color="#15202b"/></linearGradient><path d="m0 0h120v120h-120z" fill="none"/><path d="m24.645 24.645h70.711v70.711h-70.711z" fill="#16d671" transform="matrix(-.70710678 .70710678 -.70710678 -.70710678 144.853 60)"/><path d="m10 60 50 50 50-50z" fill="url(#a)" opacity=".4"/><path d="m35.258 35.258h49.485v49.485h-49.485z" fill="url(#b)" transform="matrix(-.70710678 .70710678 -.70710678 -.70710678 144.853 60)"/><path d="m59.754 79.4a16.135 16.135 0 0 1 -7.107-1.548 12.079 12.079 0 0 1 -5.256-5.052 10.4 10.4 0 0 1 -1.217-3.169 15.792 15.792 0 0 1 -.3-3.043v-1.54h10.976l.055 1.48a3.118 3.118 0 0 0 .795 2.242 2.966 2.966 0 0 0 2.14.706 2.5 2.5 0 0 0 1.948-.611 2.68 2.68 0 0 0 .614-1.828 2.187 2.187 0 0 0 -.655-1.87 2.646 2.646 0 0 0 -1.825-.651 3.292 3.292 0 0 0 -.526.04q-.359.06-.8.14l-1.812.33v-8.135h-9.7l.2-1.717a14.824 14.824 0 0 1 1.354-4.8 11.869 11.869 0 0 1 2.711-3.645 11.4 11.4 0 0 1 3.88-2.275 15.375 15.375 0 0 1 9.427-.045 10.921 10.921 0 0 1 3.716 2.1 9.428 9.428 0 0 1 2.447 3.375 10.832 10.832 0 0 1 .844 4.319 8.554 8.554 0 0 1 -1.056 4.413 8.387 8.387 0 0 1 -.936 1.278 8.14 8.14 0 0 1 2.185 2.139 9.528 9.528 0 0 1 1.61 5.574 10.948 10.948 0 0 1 -3.974 8.6 13.206 13.206 0 0 1 -4.357 2.37 17.14 17.14 0 0 1 -5.381.823zm-1.244-22.784a3.082 3.082 0 0 0 .363.03h.39a1.85 1.85 0 0 0 1.4-.477 1.533 1.533 0 0 0 .468-1.225 1.457 1.457 0 0 0 -.419-1.155 1.575 1.575 0 0 0 -1.2-.423 1.519 1.519 0 0 0 -1.244.485 2.037 2.037 0 0 0 -.5 1.5v1.169z" fill="url(#c)"/><path d="m60 45.229a12.836 12.836 0 0 1 4.16.636 9.353 9.353 0 0 1 3.2 1.8 7.856 7.856 0 0 1 2.05 2.829 9.263 9.263 0 0 1 .717 3.709 7.026 7.026 0 0 1 -.84 3.628 7.545 7.545 0 0 1 -2.4 2.439 6.852 6.852 0 0 1 3.71 2.644 8 8 0 0 1 1.332 4.693 9.411 9.411 0 0 1 -3.423 7.42 11.628 11.628 0 0 1 -3.853 2.091 15.543 15.543 0 0 1 -4.9.737 14.549 14.549 0 0 1 -6.435-1.393 10.525 10.525 0 0 1 -4.591-4.427 8.843 8.843 0 0 1 -1.045-2.706 14.062 14.062 0 0 1 -.267-2.746h7.953a4.582 4.582 0 0 0 1.27 3.3 4.453 4.453 0 0 0 3.2 1.127 3.887 3.887 0 0 0 3.116-1.148 4.193 4.193 0 0 0 .984-2.829 3.79 3.79 0 0 0 -1.191-3.033 4.2 4.2 0 0 0 -2.828-1.025 4.751 4.751 0 0 0 -.78.062c-.245.041-.519.089-.819.143v-5.038a4.643 4.643 0 0 0 .553.041h.39a3.409 3.409 0 0 0 2.459-.9 3.087 3.087 0 0 0 .943-2.336 3.014 3.014 0 0 0 -.881-2.255 3.124 3.124 0 0 0 -2.275-.86 3.071 3.071 0 0 0 -2.378.983 3.613 3.613 0 0 0 -.9 2.542h-7.421a13.289 13.289 0 0 1 1.209-4.3 10.307 10.307 0 0 1 2.357-3.177 9.8 9.8 0 0 1 3.361-1.967 12.8 12.8 0 0 1 4.263-.684m0-3.074a15.921 15.921 0 0 0 -5.282.85 12.908 12.908 0 0 0 -4.4 2.583 13.405 13.405 0 0 0 -3.061 4.112 16.387 16.387 0 0 0 -1.5 5.294l-.406 3.435h9.894v5.083h-10.9v3.075a17.251 17.251 0 0 0 .325 3.342 11.9 11.9 0 0 0 1.4 3.644 13.567 13.567 0 0 0 5.913 5.659 17.649 17.649 0 0 0 7.777 1.7 18.694 18.694 0 0 0 5.863-.893 14.738 14.738 0 0 0 4.86-2.65 12.486 12.486 0 0 0 4.517-9.779 11.035 11.035 0 0 0 -1.887-6.454 9.852 9.852 0 0 0 -1.313-1.533c.045-.072.09-.145.133-.219a10.056 10.056 0 0 0 1.272-5.2 12.346 12.346 0 0 0 -.97-4.928 10.937 10.937 0 0 0 -2.844-3.921 12.469 12.469 0 0 0 -4.232-2.4 15.983 15.983 0 0 0 -5.153-.8zm-.62 12.756a.863.863 0 0 1 .128-.008q.048 0 .081 0v.038a.967.967 0 0 1 -.007.12.708.708 0 0 1 -.265.043.526.526 0 0 1 .062-.2zm-.947 11.376.435-.079c.285-.051.544-.1.777-.136a1.676 1.676 0 0 1 .273-.019 1.125 1.125 0 0 1 .822.28 1.342 1.342 0 0 1 .12.7 1.165 1.165 0 0 1 -.215.8 2.259 2.259 0 0 1 -.81.108 1.584 1.584 0 0 1 -1.081-.284 1.931 1.931 0 0 1 -.314-1.185l-.007-.183z" fill="#fff"/></svg>