<svg viewBox="0 0 120 120" xmlns="http://www.w3.org/2000/svg" xmlns:xlink="http://www.w3.org/1999/xlink"><linearGradient id="a" gradientUnits="userSpaceOnUse" x1="60" x2="60" y1="60" y2="103.84"><stop offset="0" stop-color="#fff" stop-opacity=".2"/><stop offset="1" stop-color="#fff"/></linearGradient><linearGradient id="b" gradientUnits="userSpaceOnUse" x1="110" x2="10" y1="85" y2="85"><stop offset="0" stop-color="#f5f5f5"/><stop offset=".234" stop-color="#f0f3f2"/><stop offset=".441" stop-color="#c2c3c5"/><stop offset=".786" stop-color="#f9f9f9"/><stop offset=".998" stop-color="#dadbdc"/></linearGradient><linearGradient id="c" x1="10" x2="110" xlink:href="#b" y1="35" y2="35"/><linearGradient id="d" gradientTransform="matrix(-.70710678 -.70710678 .70710678 -.70710678 60 144.853)" x1="60" x2="60" xlink:href="#a" y1="25.009" y2="94.991"/><linearGradient id="e" gradientUnits="userSpaceOnUse" x1="59.673" x2="59.673" y1="79.395" y2="43.692"><stop offset="0" stop-color="#2a385f"/><stop offset="1" stop-color="#15202b"/></linearGradient><linearGradient id="f" x1="59.864" x2="59.864" xlink:href="#b" y1="118.473" y2="62.348"/><path d="m0 0h120v120h-120z" fill="none"/><path d="m29 29h61.999v61.999h-61.999z" fill="#16d671" transform="matrix(-.70710678 .70710678 -.70710678 -.70710678 144.853 60)"/><path d="m16.16 60 43.84 43.84 43.84-43.84z" fill="url(#a)" opacity=".4"/><path d="m103.84 60-43.84 43.84-43.84-43.84h-6.16l50 50 50-50z" fill="url(#b)"/><path d="m60 10-50 50h6.16l43.84-43.84 43.84 43.84h6.16z" fill="url(#c)"/><path d="m35.258 35.258h49.485v49.485h-49.485z" fill="url(#d)" transform="matrix(-.70710678 .70710678 -.70710678 -.70710678 144.853 60)"/><path d="m59.754 79.4a16.128 16.128 0 0 1 -7.107-1.547 12.081 12.081 0 0 1 -5.256-5.053 10.391 10.391 0 0 1 -1.217-3.167 15.817 15.817 0 0 1 -.3-3.044v-1.541h10.97l.056 1.479a3.121 3.121 0 0 0 .792 2.244 2.966 2.966 0 0 0 2.139.7 2.5 2.5 0 0 0 1.949-.612 2.682 2.682 0 0 0 .613-1.827 2.191 2.191 0 0 0 -.655-1.87 2.646 2.646 0 0 0 -1.825-.651 3.159 3.159 0 0 0 -.525.04c-.239.04-.506.087-.8.14l-1.812.33v-8.13h-9.7l.2-1.717a14.824 14.824 0 0 1 1.354-4.8 11.861 11.861 0 0 1 2.711-3.645 11.387 11.387 0 0 1 3.879-2.274 15.369 15.369 0 0 1 9.428-.046 10.926 10.926 0 0 1 3.716 2.1 9.4 9.4 0 0 1 2.447 3.375 10.825 10.825 0 0 1 .844 4.319 8.547 8.547 0 0 1 -1.056 4.412 8.321 8.321 0 0 1 -.936 1.278 8.14 8.14 0 0 1 2.185 2.139 9.525 9.525 0 0 1 1.61 5.574 10.944 10.944 0 0 1 -3.974 8.6 13.208 13.208 0 0 1 -4.357 2.371 17.131 17.131 0 0 1 -5.373.823zm-1.24-22.778a2.979 2.979 0 0 0 .359.029h.39a1.85 1.85 0 0 0 1.4-.477 1.533 1.533 0 0 0 .468-1.225 1.457 1.457 0 0 0 -.419-1.155 1.575 1.575 0 0 0 -1.2-.423 1.523 1.523 0 0 0 -1.245.485 2.042 2.042 0 0 0 -.5 1.5v1.167z" fill="url(#e)"/><path d="m60 45.229a12.863 12.863 0 0 1 4.16.636 9.386 9.386 0 0 1 3.2 1.8 7.844 7.844 0 0 1 2.05 2.829 9.263 9.263 0 0 1 .717 3.709 7.026 7.026 0 0 1 -.84 3.628 7.545 7.545 0 0 1 -2.4 2.439 6.857 6.857 0 0 1 3.71 2.644 7.993 7.993 0 0 1 1.332 4.693 9.415 9.415 0 0 1 -3.423 7.42 11.628 11.628 0 0 1 -3.853 2.091 15.543 15.543 0 0 1 -4.9.737 14.535 14.535 0 0 1 -6.435-1.393 10.53 10.53 0 0 1 -4.591-4.427 8.843 8.843 0 0 1 -1.045-2.706 14.142 14.142 0 0 1 -.267-2.747h7.953a4.585 4.585 0 0 0 1.27 3.3 4.459 4.459 0 0 0 3.2 1.127 3.89 3.89 0 0 0 3.115-1.148 4.192 4.192 0 0 0 .984-2.828 3.79 3.79 0 0 0 -1.19-3.033 4.2 4.2 0 0 0 -2.828-1.024 4.732 4.732 0 0 0 -.779.061c-.246.041-.52.089-.82.144v-5.039a4.658 4.658 0 0 0 .553.041h.39a3.413 3.413 0 0 0 2.459-.9 3.09 3.09 0 0 0 .943-2.337 3.013 3.013 0 0 0 -.881-2.254 3.119 3.119 0 0 0 -2.275-.861 3.072 3.072 0 0 0 -2.378.984 3.61 3.61 0 0 0 -.9 2.541h-7.421a13.289 13.289 0 0 1 1.209-4.3 10.307 10.307 0 0 1 2.357-3.177 9.832 9.832 0 0 1 3.361-1.967 12.8 12.8 0 0 1 4.263-.683m0-3.074a15.921 15.921 0 0 0 -5.282.85 12.94 12.94 0 0 0 -4.4 2.583 13.405 13.405 0 0 0 -3.061 4.112 16.387 16.387 0 0 0 -1.5 5.294l-.406 3.436h9.894v5.082h-10.9v3.074a17.253 17.253 0 0 0 .325 3.343 11.908 11.908 0 0 0 1.4 3.644 13.567 13.567 0 0 0 5.913 5.659 17.649 17.649 0 0 0 7.777 1.7 18.687 18.687 0 0 0 5.864-.892 14.726 14.726 0 0 0 4.859-2.65 12.486 12.486 0 0 0 4.517-9.78 11.033 11.033 0 0 0 -1.887-6.454 9.852 9.852 0 0 0 -1.313-1.533c.045-.072.09-.145.133-.219a10.056 10.056 0 0 0 1.272-5.2 12.346 12.346 0 0 0 -.97-4.928 10.937 10.937 0 0 0 -2.844-3.921 12.469 12.469 0 0 0 -4.232-2.4 15.983 15.983 0 0 0 -5.153-.8zm-.62 12.756a.863.863 0 0 1 .128-.008q.048 0 .081 0v.038a.967.967 0 0 1 -.007.12.722.722 0 0 1 -.265.044.526.526 0 0 1 .062-.2zm-.947 11.377.44-.08c.283-.052.541-.1.772-.136a1.643 1.643 0 0 1 .273-.019 1.125 1.125 0 0 1 .822.28 1.348 1.348 0 0 1 .12.7 1.158 1.158 0 0 1 -.215.793 2.232 2.232 0 0 1 -.809.108 1.591 1.591 0 0 1 -1.083-.283 1.939 1.939 0 0 1 -.313-1.185l-.007-.182z" fill="#fff"/><path d="m26.225 62.348c-.63 6.261-5.239 4.544-3.068 12.805 5.443-3.159 4.213-7.653 3.068-12.805zm67.277 0c-1.145 5.154-2.379 9.646 3.068 12.805 2.171-8.261-2.438-6.544-3.07-12.805zm-80.381 2.007c1.077 10.125 4.738 13.4 9.6 13.5-.87-9.041-4.221-6.589-9.6-13.5zm93.485 0c-5.378 6.911-8.734 4.459-9.6 13.5 4.858-.104 8.523-3.375 9.6-13.5zm-77.106 6.192c1.125 6.9-4.318 6.376.388 14.618 4.937-4.957 2.323-9.416-.388-14.618zm60.726 0c-2.712 5.2-5.33 9.661-.393 14.618 4.705-8.242-.733-7.718.393-14.618zm-74.218 5.913c4.068 10.557 8.94 13.014 14.183 11.725-3.529-9.451-6.423-5.855-14.183-11.725zm87.706 0c-7.759 5.87-10.649 2.274-14.178 11.725 5.243 1.289 10.111-1.168 14.178-11.725zm-68.661 1.529c3.315 7.025-2.655 8.136 4.9 15.5 3.747-6.808-.411-10.775-4.9-15.5zm49.616 0c-4.489 4.726-8.65 8.692-4.895 15.5 7.55-7.364 1.58-8.475 4.895-15.5zm-41.969 5.936c5.8 6.388-.18 9.509 10.234 14.879 1.778-8.452-3.934-11.316-10.234-14.879zm34.329 0c-6.306 3.563-12.014 6.427-10.235 14.875 10.414-5.37 4.43-8.491 10.234-14.879zm-54.567 4.516c7.577 10.031 13.531 11.159 18.738 8.18-6.665-9.013-8.654-4.287-18.738-8.18zm74.8 0c-10.085 3.893-12.068-.833-18.732 8.18 5.205 2.979 11.154 1.85 18.732-8.18zm-50.908 9.411c-3.435-.013-6.525 1.78-13.638 1.269 11.309 8.2 18 7.463 22.566 2.6-4.066-3.011-6.577-3.863-8.928-3.872zm27.016 0c-2.35.009-4.858.861-8.923 3.872 4.562 4.86 11.257 5.593 22.566-2.6-7.113.511-10.208-1.282-13.643-1.269zm-16.721 4.341c.809.745 1.621 1.44 2.428 2.1-6.524 3.191-15.507 7.452-17.576 7.115l1.713 7.068c-.028-4.433 8.019-6.609 16.786-13.444 8.768 6.837 16.815 9.011 16.786 13.444l1.714-7.068c-2.069.337-11.052-3.923-17.577-7.115.808-.657 1.619-1.352 2.429-2.1-.938.459-2.106 1.036-3.352 1.647-1.245-.611-2.415-1.189-3.352-1.647z" fill="url(#f)"/></svg>