<svg viewBox="0 0 120 120" xmlns="http://www.w3.org/2000/svg" xmlns:xlink="http://www.w3.org/1999/xlink"><linearGradient id="a" gradientUnits="userSpaceOnUse" x1="60" x2="60" y1="60" y2="103.84"><stop offset="0" stop-color="#fff" stop-opacity=".2"/><stop offset="1" stop-color="#fff"/></linearGradient><linearGradient id="b" gradientUnits="userSpaceOnUse" x1="110" x2="10" y1="85" y2="85"><stop offset="0" stop-color="#f5f5f5"/><stop offset=".234" stop-color="#f0f3f2"/><stop offset=".441" stop-color="#c2c3c5"/><stop offset=".786" stop-color="#f9f9f9"/><stop offset=".998" stop-color="#dadbdc"/></linearGradient><linearGradient id="c" x1="10" x2="110" xlink:href="#b" y1="35" y2="35"/><linearGradient id="d" gradientTransform="matrix(-.70710678 -.70710678 .70710678 -.70710678 60 144.853)" x1="60" x2="60" xlink:href="#a" y1="25.009" y2="94.991"/><linearGradient id="e" gradientUnits="userSpaceOnUse" x1="60.021" x2="60.021" y1="79.395" y2="44.553"><stop offset="0" stop-color="#2a385f"/><stop offset="1" stop-color="#15202b"/></linearGradient><linearGradient id="f" x1="59.864" x2="59.864" xlink:href="#b" y1="118.473" y2="62.348"/><path d="m0 0h120v120h-120z" fill="none"/><path d="m29 29h61.999v61.999h-61.999z" fill="#e5bb0c" transform="matrix(-.70710678 .70710678 -.70710678 -.70710678 144.853 60)"/><path d="m16.16 60 43.84 43.84 43.84-43.84z" fill="url(#a)" opacity=".4"/><path d="m103.84 60-43.84 43.84-43.84-43.84h-6.16l50 50 50-50z" fill="url(#b)"/><path d="m60 10-50 50h6.16l43.84-43.84 43.84 43.84h6.16z" fill="url(#c)"/><path d="m35.258 35.258h49.485v49.485h-49.485z" fill="url(#d)" transform="matrix(-.70710678 .70710678 -.70710678 -.70710678 144.853 60)"/><path d="m60.041 79.4a17.253 17.253 0 0 1 -6.03-1 14.04 14.04 0 0 1 -4.62-2.766 12.209 12.209 0 0 1 -2.974-4.148 12.468 12.468 0 0 1 -1.03-5.02 17.547 17.547 0 0 1 1.269-6.226 23.471 23.471 0 0 1 3.833-6.431l7.639-9.253h13.4l-7.939 9.128a11.2 11.2 0 0 1 3.933.972 11.82 11.82 0 0 1 3.766 2.708 12.4 12.4 0 0 1 2.48 4 13.377 13.377 0 0 1 .883 4.861 13.07 13.07 0 0 1 -1.025 5.175 12.3 12.3 0 0 1 -2.969 4.2 13.818 13.818 0 0 1 -4.628 2.8 17.128 17.128 0 0 1 -5.988 1zm-.041-16.606a3.3 3.3 0 0 0 -1.365.278 3.77 3.77 0 0 0 -1.944 1.944 3.491 3.491 0 0 0 0 2.728 3.771 3.771 0 0 0 .789 1.156 3.729 3.729 0 0 0 1.157.789 3.479 3.479 0 0 0 2.728 0 3.772 3.772 0 0 0 1.947-1.947 3.5 3.5 0 0 0 0-2.727 3.771 3.771 0 0 0 -1.946-1.945 3.307 3.307 0 0 0 -1.366-.276z" fill="url(#e)"/><path d="m68.158 46.09-8.773 10.084h.164a6.224 6.224 0 0 1 1.886-.84 7.009 7.009 0 0 1 1.311-.143 9.849 9.849 0 0 1 4.141.86 10.262 10.262 0 0 1 3.279 2.357 10.848 10.848 0 0 1 2.173 3.5 11.806 11.806 0 0 1 .778 4.3 11.518 11.518 0 0 1 -.9 4.571 10.725 10.725 0 0 1 -2.6 3.688 12.252 12.252 0 0 1 -4.119 2.48 17.055 17.055 0 0 1 -10.946 0 12.435 12.435 0 0 1 -4.12-2.459 10.62 10.62 0 0 1 -2.6-3.627 10.9 10.9 0 0 1 -.9-4.407 15.979 15.979 0 0 1 1.168-5.677 21.832 21.832 0 0 1 3.587-6.006l7.173-8.69h9.306m-8.166 25.424a4.846 4.846 0 0 0 1.988-.41 5.309 5.309 0 0 0 2.727-2.726 5.036 5.036 0 0 0 0-3.976 5.3 5.3 0 0 0 -2.727-2.726 5.025 5.025 0 0 0 -3.976 0 5.3 5.3 0 0 0 -2.726 2.726 5.025 5.025 0 0 0 0 3.976 5.312 5.312 0 0 0 2.726 2.731 4.842 4.842 0 0 0 1.988.41m14.907-28.494h-17.507l-.922 1.117-7.174 8.69a25.025 25.025 0 0 0 -4.087 6.864 19.084 19.084 0 0 0 -1.372 6.776 14.006 14.006 0 0 0 1.163 5.637 13.716 13.716 0 0 0 3.344 4.666 15.571 15.571 0 0 0 5.123 3.074 20.125 20.125 0 0 0 13.093 0 15.373 15.373 0 0 0 5.137-3.108 13.83 13.83 0 0 0 3.338-4.732 14.614 14.614 0 0 0 1.149-5.778 14.907 14.907 0 0 0 -.987-5.416 13.955 13.955 0 0 0 -2.788-4.487 13.355 13.355 0 0 0 -4.253-3.059 12.271 12.271 0 0 0 -1.634-.61l3.947-4.537 4.43-5.092zm-14.907 25.415a1.8 1.8 0 0 1 -.739-.145 2.258 2.258 0 0 1 -.692-.47 2.229 2.229 0 0 1 -.472-.693 1.958 1.958 0 0 1 0-1.479 2.229 2.229 0 0 1 1.166-1.168 1.968 1.968 0 0 1 1.483 0 2.234 2.234 0 0 1 1.164 1.168 1.968 1.968 0 0 1 0 1.478 2.235 2.235 0 0 1 -1.164 1.161 1.784 1.784 0 0 1 -.74.146z" fill="#fff"/><path d="m26.225 62.348c-.63 6.261-5.239 4.544-3.068 12.805 5.443-3.159 4.213-7.653 3.068-12.805zm67.277 0c-1.145 5.154-2.379 9.646 3.068 12.805 2.171-8.261-2.438-6.544-3.07-12.805zm-80.381 2.007c1.077 10.125 4.738 13.4 9.6 13.5-.87-9.041-4.221-6.589-9.6-13.5zm93.485 0c-5.378 6.911-8.734 4.459-9.6 13.5 4.858-.104 8.523-3.375 9.6-13.5zm-77.106 6.192c1.125 6.9-4.318 6.376.388 14.618 4.937-4.957 2.323-9.416-.388-14.618zm60.726 0c-2.712 5.2-5.33 9.661-.393 14.618 4.705-8.242-.733-7.718.393-14.618zm-74.218 5.913c4.068 10.557 8.94 13.014 14.183 11.725-3.529-9.451-6.423-5.855-14.183-11.725zm87.706 0c-7.759 5.87-10.649 2.274-14.178 11.725 5.243 1.289 10.111-1.168 14.178-11.725zm-68.661 1.529c3.315 7.025-2.655 8.136 4.9 15.5 3.747-6.808-.411-10.775-4.9-15.5zm49.616 0c-4.489 4.726-8.65 8.692-4.895 15.5 7.55-7.364 1.58-8.475 4.895-15.5zm-41.969 5.936c5.8 6.388-.18 9.509 10.234 14.879 1.778-8.452-3.934-11.316-10.234-14.879zm34.329 0c-6.306 3.563-12.014 6.427-10.235 14.875 10.414-5.37 4.43-8.491 10.234-14.879zm-54.567 4.516c7.577 10.031 13.531 11.159 18.738 8.18-6.665-9.013-8.654-4.287-18.738-8.18zm74.8 0c-10.085 3.893-12.068-.833-18.732 8.18 5.205 2.979 11.154 1.85 18.732-8.18zm-50.908 9.411c-3.435-.013-6.525 1.78-13.638 1.269 11.309 8.2 18 7.463 22.566 2.6-4.066-3.011-6.577-3.863-8.928-3.872zm27.016 0c-2.35.009-4.858.861-8.923 3.872 4.562 4.86 11.257 5.593 22.566-2.6-7.113.511-10.208-1.282-13.643-1.269zm-16.721 4.341c.809.745 1.621 1.44 2.428 2.1-6.524 3.191-15.507 7.452-17.576 7.115l1.713 7.068c-.028-4.433 8.019-6.609 16.786-13.444 8.768 6.837 16.815 9.011 16.786 13.444l1.714-7.068c-2.069.337-11.052-3.923-17.577-7.115.808-.657 1.619-1.352 2.429-2.1-.938.459-2.106 1.036-3.352 1.647-1.245-.611-2.415-1.189-3.352-1.647z" fill="url(#f)"/></svg>