<svg viewBox="0 0 120 120" xmlns="http://www.w3.org/2000/svg" xmlns:xlink="http://www.w3.org/1999/xlink"><linearGradient id="a" gradientUnits="userSpaceOnUse" x1="60" x2="60" y1="60" y2="110"><stop offset="0" stop-color="#fff" stop-opacity=".2"/><stop offset="1" stop-color="#fff"/></linearGradient><linearGradient id="b" gradientTransform="matrix(-.70710678 -.70710678 .70710678 -.70710678 60 144.853)" x1="60" x2="60" xlink:href="#a" y1="25.009" y2="94.991"/><linearGradient id="c" gradientUnits="userSpaceOnUse" x1="60" x2="60" y1="79.354" y2="43.692"><stop offset="0" stop-color="#2a385f"/><stop offset="1" stop-color="#15202b"/></linearGradient><path d="m0 0h120v120h-120z" fill="none"/><path d="m24.645 24.645h70.711v70.711h-70.711z" fill="#ff6700" transform="matrix(-.70710678 .70710678 -.70710678 -.70710678 144.853 60)"/><path d="m10 60 50 50 50-50z" fill="url(#a)" opacity=".4"/><path d="m35.258 35.258h49.485v49.485h-49.485z" fill="url(#b)" transform="matrix(-.70710678 .70710678 -.70710678 -.70710678 144.853 60)"/><path d="m60 79.354a17.036 17.036 0 0 1 -5.113-.747 13.536 13.536 0 0 1 -4.228-2.154 10.612 10.612 0 0 1 -2.917-3.4 9.54 9.54 0 0 1 3.333-12.467 8.168 8.168 0 0 1 -3.147-6.706 9.474 9.474 0 0 1 .937-4.225 9.9 9.9 0 0 1 2.546-3.226 11.24 11.24 0 0 1 3.842-2.049 16.764 16.764 0 0 1 9.493 0 11.231 11.231 0 0 1 3.844 2.048 9.934 9.934 0 0 1 2.545 3.225 9.479 9.479 0 0 1 .937 4.227 10.406 10.406 0 0 1 -.294 2.574 6.568 6.568 0 0 1 -1.1 2.3 8.642 8.642 0 0 1 -1.889 1.824l-.035.026a9.15 9.15 0 0 1 4.586 8.034 9.283 9.283 0 0 1 -1.056 4.362 10.47 10.47 0 0 1 -2.874 3.407 13.618 13.618 0 0 1 -4.2 2.177 16.92 16.92 0 0 1 -5.21.77zm0-13.854a2.007 2.007 0 0 0 -1.525.626 2.057 2.057 0 0 0 -.627 1.526 2.356 2.356 0 0 0 .637 1.62 2.185 2.185 0 0 0 .7.485 1.936 1.936 0 0 0 .82.171 1.834 1.834 0 0 0 .776-.17 2.471 2.471 0 0 0 .742-.508 2.178 2.178 0 0 0 .469-.7 2.141 2.141 0 0 0 .166-.855 2.074 2.074 0 0 0 -.637-1.557 2.031 2.031 0 0 0 -1.521-.638zm0-13.363a1.749 1.749 0 0 0 -1.333.535 1.7 1.7 0 0 0 -.532 1.289 1.837 1.837 0 0 0 .544 1.364 1.717 1.717 0 0 0 1.321.541 1.617 1.617 0 0 0 .7-.141 1.984 1.984 0 0 0 .61-.431 2.154 2.154 0 0 0 .416-.633 1.647 1.647 0 0 0 .139-.66 1.761 1.761 0 0 0 -.544-1.321 1.717 1.717 0 0 0 -1.321-.544z" fill="url(#c)"/><path d="m60 45.229a14.163 14.163 0 0 1 4.284.615 9.648 9.648 0 0 1 3.32 1.762 8.35 8.35 0 0 1 2.153 2.727 7.919 7.919 0 0 1 .778 3.545 8.882 8.882 0 0 1 -.246 2.193 5 5 0 0 1 -.84 1.763 7.113 7.113 0 0 1 -1.558 1.5 14.132 14.132 0 0 1 -2.4 1.353q6.31 2.46 6.312 7.952a7.736 7.736 0 0 1 -.882 3.649 8.929 8.929 0 0 1 -2.459 2.91 12.042 12.042 0 0 1 -3.73 1.927 16.4 16.4 0 0 1 -9.387.02 11.977 11.977 0 0 1 -3.745-1.91 9.038 9.038 0 0 1 -2.5-2.91 7.661 7.661 0 0 1 -.9-3.69q0-5.615 6.109-7.952-4.839-2.007-4.838-6.8a7.906 7.906 0 0 1 .779-3.545 8.334 8.334 0 0 1 2.15-2.732 9.666 9.666 0 0 1 3.32-1.762 14.167 14.167 0 0 1 4.28-.615m0 12.171a3.157 3.157 0 0 0 1.352-.287 3.511 3.511 0 0 0 1.067-.759 3.678 3.678 0 0 0 .717-1.086 3.157 3.157 0 0 0 .264-1.268 3.3 3.3 0 0 0 -.983-2.4 3.254 3.254 0 0 0 -2.417-1 3.289 3.289 0 0 0 -2.419.984 3.243 3.243 0 0 0 -.981 2.376 3.357 3.357 0 0 0 .983 2.439 3.254 3.254 0 0 0 2.417 1.001m0 14.06a3.375 3.375 0 0 0 1.414-.308 4.011 4.011 0 0 0 1.189-.819 3.721 3.721 0 0 0 .8-1.189 3.677 3.677 0 0 0 .288-1.456 3.6 3.6 0 0 0 -1.091-2.64 3.68 3.68 0 0 0 -6.293 2.6 3.9 3.9 0 0 0 1.067 2.686 3.745 3.745 0 0 0 1.168.819 3.478 3.478 0 0 0 1.458.311m0-29.309a17.332 17.332 0 0 0 -5.21.757 12.749 12.749 0 0 0 -4.364 2.335 11.432 11.432 0 0 0 -2.939 3.724 11 11 0 0 0 -1.1 4.907 9.825 9.825 0 0 0 2.319 6.553 10.572 10.572 0 0 0 -3.59 8.2 10.748 10.748 0 0 0 1.269 5.146 12.117 12.117 0 0 0 3.334 3.891 15.072 15.072 0 0 0 4.7 2.4 19.449 19.449 0 0 0 11.255-.028 15.151 15.151 0 0 0 4.674-2.427 12.024 12.024 0 0 0 3.292-3.908 10.809 10.809 0 0 0 1.234-5.076 10.424 10.424 0 0 0 -3.66-8.129 9.308 9.308 0 0 0 .7-.831 8.1 8.1 0 0 0 1.352-2.837 11.967 11.967 0 0 0 .342-2.954 11 11 0 0 0 -1.095-4.9 11.451 11.451 0 0 0 -2.939-3.726 12.749 12.749 0 0 0 -4.367-2.336 17.316 17.316 0 0 0 -5.207-.761zm0 12.174c-.143 0-.153-.011-.223-.081a.312.312 0 0 1 -.105-.288.2.2 0 0 1 .083-.2c.064-.064.084-.083.245-.083.143 0 .156.012.224.082a.262.262 0 0 1 .1.245.65.65 0 0 1 -.13.232.46.46 0 0 1 -.138.094c-.006 0-.026 0-.057 0zm0 14.061a.406.406 0 0 1 -.183-.033.658.658 0 0 1 -.218-.145.764.764 0 0 1 -.158-.253.779.779 0 0 1 -.056-.308.526.526 0 0 1 .186-.448.481.481 0 0 1 .429-.167.5.5 0 0 1 .431.188.548.548 0 0 1 .185.468.6.6 0 0 1 -.042.25.667.667 0 0 1 -.144.221.954.954 0 0 1 -.287.194.314.314 0 0 1 -.143.033z" fill="#fff"/></svg>