<svg viewBox="0 0 16 16" xmlns="http://www.w3.org/2000/svg">
    <rect fill="#56cbef" height="12" rx="2" width="12" x="2" y="2" />
    <path d="m4.25 3h-.25a1 1 0 0 0 -1 1v.25a1 1 0 0 0 1.712.709l.247-.247a1 1 0 0 0 -.709-1.712z"
        fill="#b2f7f5" />
    <path
        d="m8.422 13h3.578a1 1 0 0 0 1-1v-3.578a1 1 0 0 0 -1.712-.71l-3.576 3.576a1 1 0 0 0 .71 1.712z"
        fill="#b2f7f5" />
    <path
        d="m5.151 7.194-.044-.045-.029-.031-.063-.071-.03-.035-.038-.046-.033-.042-.035-.046-.047-.063-.04-.058-.034-.051-.029-.043-.029-.055-.026-.043c-.02-.034-.04-.07-.06-.106l-.022-.04-.035-.066-.02-.04c-.04-.079-.078-.161-.114-.247l-.023-.034c-.008-.032-.02-.056-.031-.085l-.01-.026c-.024-.064-.048-.13-.071-.2l-.033-.1-.008-.027c-.034-.11-.066-.225-.1-.346v-.008c-.01-.041-.02-.082-.029-.124v-.009c-.028-.128-.053-.263-.076-.4-.015-.095-.03-.192-.042-.292l.061-.014h.016.017l.038-.008h.006a4.2 4.2 0 0 1 .76-.069c.111 0 .23.006.352.016h.032l.087.01.048.006.083.012.055.009.081.016.06.012.079.018.063.017.078.021.067.022.074.024c.035.012.07.026.1.04s.064.026.1.04l.075.033.069.035.07.037.069.04.069.041.068.046.066.046.068.051c.021.016.042.034.062.051s.045.037.067.057l.06.044c.022.021.044.042.065.064l.053.058c.021.023.043.045.063.069a3.728 3.728 0 0 1 .619 1.009c.032.078.06.156.084.231v.009c.024.073.044.145.062.216v.013c.017.069.031.135.042.2v.019c.005.03.01.06.014.09 0 .031.008.06.011.089v.022l.006.069v.017.076.026.052.185.047l.022.045c.019.038.039.078.055.119l.104.187.028.079c.014.04.029.08.042.118.007.018.012.036.018.054a2.7 2.7 0 0 1 .275-.808c.011-.021.023-.042.035-.063.011-.021.024-.041.036-.062.012-.02.025-.04.038-.06v-.007c.013-.019.027-.038.04-.058l.006-.008.049-.065.007-.009c.014-.019.028-.037.043-.055l.008-.01.046-.054.009-.01.048-.052.01-.01.051-.052.011-.01.055-.052.008-.007.06-.052a2.312 2.312 0 0 1 .28-.2l.023-.015.048-.028.04-.024.045-.024.048-.025.043-.021.054-.026.043-.019.059-.026.044-.019.065-.026.042-.015.07-.024.041-.014.075-.023.041-.012.08-.022.042-.01.085-.02.041-.009c.03-.006.06-.013.091-.018l.04-.008.1-.016.039-.006.105-.014h.037l.113-.011h.034l.123-.009h.03l.134-.006h.022.149.1.141.085c.073 0 .148.006.224.012a2.976 2.976 0 0 1 -1.339 2.527c-.042.024-.083.046-.124.067l-.027.014-.1.047-.031.015-.09.04-.029.013-.094.038-.022.008-.108.039h-.005c-.078.026-.154.048-.227.067h-.011c-.032.008-.064.016-.1.022h-.022q-.04.009-.081.015h-.025l-.064.014h-.022l-.086.01h-.012c-.064.01-.126.015-.186.015h-.132-.044-.05-.065l-.054-.005h-.041l-.038-.02-.04-.006-.03-.006-.037-.007-.032-.007-.034-.007-.03-.007-.031-.008-.036-.008-.028-.007-.023-.012.023.138c.01.058.017.114.023.169l.006.059.008.072c.006.049.012.1.015.153s.005.1.008.143c.007.094.013.192.012.284v.05.352.09c0 .095-.006.185-.014.27-.009.109-.017.209-.025.3l-.029.228c-.013.106-.021.174-.024.194v.014a.315.315 0 0 1 -.31.268.388.388 0 0 1 -.048 0 .315.315 0 0 1 -.263-.363l.034-.223c.009-.055.018-.12.029-.186.009-.086.02-.182.033-.291.01-.072.015-.152.021-.236l.007-.1c.01-.1.013-.21.015-.325v-.049c0-.083 0-.169 0-.26 0-.046 0-.092 0-.136s0-.081-.007-.122 0-.054-.006-.079v-.05c0-.052-.008-.1-.015-.152l-.025-.205-.033-.117-.014-.083c-.009-.059-.022-.116-.037-.176v-.012l-.015-.065c-.01-.043-.019-.083-.032-.124-.018-.061-.035-.121-.053-.18l-.016-.044-.017-.054h-.012l-.065.006h-.023-.049-.033-.057-.119a3.391 3.391 0 0 1 -.627-.057c-.082-.001-.166-.021-.25-.044-.055-.015-.11-.032-.166-.051h-.01l-.078-.027h-.005q-.042-.015-.084-.033h-.006l-.075-.032-.021-.014c-.054-.024-.108-.05-.162-.079l-.017-.009c-.022-.011-.044-.023-.065-.036l-.018-.01c-.027-.015-.053-.031-.079-.047l-.01-.007-.069-.045-.023-.015-.06-.042-.017-.01-.075-.06-.025-.019-.05-.043-.028-.023-.058-.055-.027-.026-.057-.05z"
        fill="#B2F7F5" />
    <g fill="#fff">
        <rect height="2" rx=".5"
            transform="matrix(.70710678 .70710678 -.70710678 .70710678 5.343 -6.899)" width="2"
            x="10" y="2" />
        <rect height="2.797" rx=".5"
            transform="matrix(.70710678 .70710678 -.70710678 .70710678 8.242 .088)" width="2.797"
            x="2.617" y="8.594" />
    </g>
</svg>