<svg viewBox="0 0 120 120" xmlns="http://www.w3.org/2000/svg" xmlns:xlink="http://www.w3.org/1999/xlink"><linearGradient id="a" gradientUnits="userSpaceOnUse" x1="60" x2="60" y1="60" y2="110"><stop offset="0" stop-color="#fff" stop-opacity=".2"/><stop offset="1" stop-color="#fff"/></linearGradient><linearGradient id="b" gradientTransform="matrix(-.70710678 -.70710678 .70710678 -.70710678 60 144.853)" x1="60" x2="60" xlink:href="#a" y1="25.009" y2="94.991"/><linearGradient id="c" gradientUnits="userSpaceOnUse" x1="46.56" x2="46.56" y1="78.535" y2="44.553"><stop offset="0" stop-color="#2a385f"/><stop offset="1" stop-color="#15202b"/></linearGradient><linearGradient id="d" x1="69.986" x2="69.986" xlink:href="#c" y1="79.396" y2="43.651"/><path d="m0 0h120v120h-120z" fill="none"/><path d="m24.645 24.645h70.711v70.711h-70.711z" fill="#8f1ae2" transform="matrix(-.70710678 .70710678 -.70710678 -.70710678 144.853 60)"/><path d="m10 60 50 50 50-50z" fill="url(#a)" opacity=".4"/><path d="m35.258 35.258h49.485v49.485h-49.485z" fill="url(#b)" transform="matrix(-.70710678 .70710678 -.70710678 -.70710678 144.853 60)"/><path d="m43.261 78.535v-24.103h-4.51v-9.879h15.618v33.982z" fill="url(#c)"/><path d="m52.832 46.09v30.91h-8.032v-24.1h-4.51v-6.8h12.542m3.074-3.075h-18.692v12.944h4.509v24.1h14.183v-37.054z" fill="#fff"/><path d="m70.007 79.4a13.536 13.536 0 0 1 -5.982-1.324 13.683 13.683 0 0 1 -4.662-3.735 17.317 17.317 0 0 1 -2.973-5.664 25.309 25.309 0 0 1 0-14.341 17.066 17.066 0 0 1 2.978-5.648 13.758 13.758 0 0 1 4.658-3.709 13.654 13.654 0 0 1 16.606 3.711 17.288 17.288 0 0 1 2.952 5.643 25.329 25.329 0 0 1 0 14.34 17.556 17.556 0 0 1 -2.948 5.657 13.426 13.426 0 0 1 -4.672 3.744 13.581 13.581 0 0 1 -5.957 1.326zm0-25.538a2.018 2.018 0 0 0 -1.235.388 4.207 4.207 0 0 0 -1.172 1.385 9.078 9.078 0 0 0 -.883 2.484 17.36 17.36 0 0 0 0 6.783 9.424 9.424 0 0 0 .891 2.5 4.158 4.158 0 0 0 1.168 1.4 2.024 2.024 0 0 0 1.235.388 2.08 2.08 0 0 0 1.229-.4 3.886 3.886 0 0 0 1.147-1.374 9.9 9.9 0 0 0 .879-2.515 17.447 17.447 0 0 0 0-6.785 9.573 9.573 0 0 0 -.873-2.5 3.921 3.921 0 0 0 -1.152-1.359 2.075 2.075 0 0 0 -1.234-.399z" fill="url(#d)"/><path d="m70.007 45.188a11.856 11.856 0 0 1 9.428 4.468 15.724 15.724 0 0 1 2.686 5.144 23.827 23.827 0 0 1 0 13.4 15.972 15.972 0 0 1 -2.686 5.165 11.847 11.847 0 0 1 -4.14 3.32 12.072 12.072 0 0 1 -14.736-3.32 15.7 15.7 0 0 1 -2.7-5.165 23.779 23.779 0 0 1 0-13.4 15.456 15.456 0 0 1 2.7-5.145 12.2 12.2 0 0 1 4.14-3.3 11.952 11.952 0 0 1 5.308-1.168m0 25.538a3.6 3.6 0 0 0 2.112-.676 5.372 5.372 0 0 0 1.619-1.907 11.37 11.37 0 0 0 1.025-2.91 18.986 18.986 0 0 0 0-7.44 11.025 11.025 0 0 0 -1.025-2.91 5.409 5.409 0 0 0 -1.619-1.882 3.667 3.667 0 0 0 -4.243 0 5.693 5.693 0 0 0 -1.62 1.886 10.576 10.576 0 0 0 -1.045 2.91 18.936 18.936 0 0 0 0 7.44 10.9 10.9 0 0 0 1.045 2.91 5.649 5.649 0 0 0 1.62 1.907 3.564 3.564 0 0 0 2.131.676m0-28.612a15.047 15.047 0 0 0 -6.655 1.479 15.3 15.3 0 0 0 -5.174 4.118 18.58 18.58 0 0 0 -3.253 6.154 26.849 26.849 0 0 0 0 15.277 18.806 18.806 0 0 0 3.244 6.163 15.378 15.378 0 0 0 18.462 4.154 14.958 14.958 0 0 0 5.2-4.168 19.1 19.1 0 0 0 3.213-6.149 26.86 26.86 0 0 0 0-15.277 18.838 18.838 0 0 0 -3.222-6.14 14.93 14.93 0 0 0 -11.82-5.611zm0 25.537a.513.513 0 0 1 -.34-.1 2.658 2.658 0 0 1 -.717-.891 7.876 7.876 0 0 1 -.736-2.088 15.9 15.9 0 0 1 0-6.128 7.575 7.575 0 0 1 .725-2.064 2.706 2.706 0 0 1 .727-.886.5.5 0 0 1 .339-.1.534.534 0 0 1 .346.119 2.418 2.418 0 0 1 .685.838 8.093 8.093 0 0 1 .721 2.093 15.942 15.942 0 0 1 0 6.131 8.389 8.389 0 0 1 -.736 2.123 2.384 2.384 0 0 1 -.674.836.532.532 0 0 1 -.343.116z" fill="#fff"/></svg>