<svg viewBox="0 0 120 120" xmlns="http://www.w3.org/2000/svg" xmlns:xlink="http://www.w3.org/1999/xlink"><linearGradient id="a" gradientUnits="userSpaceOnUse" x1="60" x2="60" y1="60" y2="103.84"><stop offset="0" stop-color="#fff" stop-opacity=".2"/><stop offset="1" stop-color="#fff"/></linearGradient><linearGradient id="b" gradientUnits="userSpaceOnUse" x1="110" x2="10" y1="85" y2="85"><stop offset="0" stop-color="#f0e755"/><stop offset=".223" stop-color="#fffb80"/><stop offset=".44" stop-color="#d17600"/><stop offset=".692" stop-color="#ffe681"/><stop offset=".993" stop-color="#d5a244"/></linearGradient><linearGradient id="c" x1="10" x2="110" xlink:href="#b" y1="35" y2="35"/><linearGradient id="d" gradientTransform="matrix(-.70710678 -.70710678 .70710678 -.70710678 60 144.853)" x1="60" x2="60" xlink:href="#a" y1="25.009" y2="94.991"/><linearGradient id="e" gradientUnits="userSpaceOnUse" x1="46.56" x2="46.56" y1="78.535" y2="44.553"><stop offset="0" stop-color="#2a385f"/><stop offset="1" stop-color="#15202b"/></linearGradient><linearGradient id="f" x1="69.986" x2="69.986" xlink:href="#e" y1="79.396" y2="43.651"/><linearGradient id="g" x1="59.862" x2="59.862" xlink:href="#b" y1="118.473" y2="18.128"/><path d="m0 0h120v120h-120z" fill="none"/><path d="m29 29h61.999v61.999h-61.999z" fill="#8f1ae2" transform="matrix(-.70710678 .70710678 -.70710678 -.70710678 144.853 60)"/><path d="m16.16 60 43.84 43.84 43.84-43.84z" fill="url(#a)" opacity=".4"/><path d="m103.84 60-43.84 43.84-43.84-43.84h-6.16l50 50 50-50z" fill="url(#b)"/><path d="m60 10-50 50h6.16l43.84-43.84 43.84 43.84h6.16z" fill="url(#c)"/><path d="m35.258 35.258h49.485v49.485h-49.485z" fill="url(#d)" transform="matrix(-.70710678 .70710678 -.70710678 -.70710678 144.853 60)"/><path d="m43.261 78.535v-24.103h-4.51v-9.879h15.618v33.982z" fill="url(#e)"/><path d="m52.832 46.09v30.91h-8.032v-24.1h-4.51v-6.8h12.542m3.074-3.074h-18.692v12.943h4.509v24.1h14.183v-37.053z" fill="#fff"/><path d="m70.007 79.4a13.536 13.536 0 0 1 -5.982-1.323 13.685 13.685 0 0 1 -4.661-3.736 17.268 17.268 0 0 1 -2.974-5.664 25.306 25.306 0 0 1 0-14.34 17.075 17.075 0 0 1 2.978-5.65 13.774 13.774 0 0 1 4.658-3.708 13.653 13.653 0 0 1 16.605 3.714 17.313 17.313 0 0 1 2.953 5.644 25.329 25.329 0 0 1 0 14.34 17.534 17.534 0 0 1 -2.948 5.657 13.329 13.329 0 0 1 -10.629 5.066zm0-25.538a2.022 2.022 0 0 0 -1.236.389 4.207 4.207 0 0 0 -1.171 1.383 9.121 9.121 0 0 0 -.884 2.487 17.406 17.406 0 0 0 0 6.782 9.43 9.43 0 0 0 .892 2.5 4.126 4.126 0 0 0 1.167 1.4 2.027 2.027 0 0 0 1.236.388 2.075 2.075 0 0 0 1.228-.4 3.87 3.87 0 0 0 1.148-1.373 9.993 9.993 0 0 0 .879-2.516 17.447 17.447 0 0 0 0-6.785 9.585 9.585 0 0 0 -.874-2.505 3.923 3.923 0 0 0 -1.151-1.358 2.075 2.075 0 0 0 -1.234-.396z" fill="url(#f)"/><path d="m70.007 45.189a11.851 11.851 0 0 1 9.428 4.467 15.7 15.7 0 0 1 2.685 5.144 23.8 23.8 0 0 1 0 13.4 15.94 15.94 0 0 1 -2.685 5.165 11.879 11.879 0 0 1 -4.14 3.321 12.07 12.07 0 0 1 -14.736-3.316 15.687 15.687 0 0 1 -2.7-5.165 23.779 23.779 0 0 1 0-13.4 15.456 15.456 0 0 1 2.7-5.145 12.212 12.212 0 0 1 4.14-3.3 11.965 11.965 0 0 1 5.308-1.167m0 25.537a3.6 3.6 0 0 0 2.112-.676 5.363 5.363 0 0 0 1.619-1.907 11.37 11.37 0 0 0 1.025-2.91 18.986 18.986 0 0 0 0-7.44 11.038 11.038 0 0 0 -1.025-2.91 5.4 5.4 0 0 0 -1.619-1.887 3.664 3.664 0 0 0 -4.244 0 5.688 5.688 0 0 0 -1.619 1.885 10.588 10.588 0 0 0 -1.045 2.91 18.936 18.936 0 0 0 0 7.44 10.9 10.9 0 0 0 1.045 2.91 5.649 5.649 0 0 0 1.619 1.907 3.567 3.567 0 0 0 2.132.676m0-28.612a15.053 15.053 0 0 0 -6.654 1.479 15.3 15.3 0 0 0 -5.174 4.117 18.593 18.593 0 0 0 -3.254 6.156 26.834 26.834 0 0 0 0 15.276 18.845 18.845 0 0 0 3.244 6.163 15.209 15.209 0 0 0 5.183 4.149 15.145 15.145 0 0 0 18.484-4.163 19.092 19.092 0 0 0 3.213-6.149 26.857 26.857 0 0 0 0-15.276 18.861 18.861 0 0 0 -3.221-6.141 14.934 14.934 0 0 0 -11.821-5.611zm0 25.538a.5.5 0 0 1 -.338-.1 2.667 2.667 0 0 1 -.719-.891 7.915 7.915 0 0 1 -.736-2.088 15.848 15.848 0 0 1 0-6.128 7.564 7.564 0 0 1 .724-2.064 2.692 2.692 0 0 1 .726-.885.5.5 0 0 1 .341-.1.536.536 0 0 1 .344.118 2.411 2.411 0 0 1 .686.839 8.027 8.027 0 0 1 .721 2.094 15.911 15.911 0 0 1 0 6.13 8.389 8.389 0 0 1 -.736 2.123 2.373 2.373 0 0 1 -.674.836.53.53 0 0 1 -.343.117z" fill="#fff"/><path d="m40.716 18.128c-.168.131-.333.263-.493.4.177-.135.346-.264.493-.4zm38.3 0c.147.136.318.265.492.4-.162-.137-.327-.269-.495-.4zm-38.816.421c-3.659 2.755-12.8 4.819-10.836 9.108 4.915.614 5.907-4.939 10.836-9.108zm39.334 0c4.924 4.169 5.92 9.723 10.841 9.108 1.958-4.289-7.182-6.353-10.841-9.108zm-51.193 4.507c-4.6 3.87-4.992 6.744-3.437 9.156 4.138-3.409 1.829-4.241 3.437-9.156zm63.042 0c1.607 4.914-.7 5.747 3.442 9.155 1.555-2.411 1.159-5.285-3.442-9.155zm-67.838 5.26c-4.377 5.047-4.308 8.27-2.182 10.646 3.949-4.462 1.272-4.974 2.182-10.646zm72.633 0c.909 5.672-1.767 6.186 2.182 10.646 2.125-2.376 2.194-5.599-2.182-10.646zm-62.531.5c-2.249 1.209-3.274.246-4.776.762a6.209 6.209 0 0 0 -2.5 1.96c3.346 1.623 5.132-.46 7.276-2.723zm52.434 0c2.145 2.262 3.931 4.345 7.276 2.722a6.221 6.221 0 0 0 -2.5-1.96c-1.5-.516-2.522.447-4.772-.762zm-55.713 4.891c-2.054 1.563-3.3.984-4.687 1.487-.829.3-1.7.992-2.826 2.769 3.953 1.2 5.552-1.4 7.513-4.256zm58.99 0c1.96 2.856 3.559 5.456 7.513 4.256-1.123-1.777-2-2.467-2.827-2.769-1.381-.5-2.633.076-4.686-1.487zm-70.258 1.316c-3.815 6.368-3.12 9.882-.336 12.072 3.458-5.642.436-5.689.336-12.072zm81.537 0c-.1 6.383-3.125 6.43.336 12.072 2.782-2.19 3.477-5.704-.339-12.072zm-73.037 4.577c-3.113 3.369-5.039.349-7.4 6.112 4.558.55 5.805-2.609 7.4-6.112zm64.528 0c1.594 3.5 2.842 6.662 7.4 6.112-2.361-5.763-4.286-2.743-7.4-6.112zm-76.607 3.622c-2.812 7.753-1.305 11.432 2.2 13.231 2.579-6.887-.735-6.291-2.2-13.231zm88.685 0c-1.461 6.94-4.775 6.343-2.2 13.231 3.5-1.8 5.008-5.478 2.2-13.231zm-78.431 3.19c-2.681 4.335-5.426 1.447-6.779 8.233 5.087-.366 5.782-4.074 6.779-8.233zm68.177 0c1 4.159 1.692 7.867 6.779 8.233-1.353-6.786-4.098-3.898-6.779-8.233zm-80.684 6.331c-1.268 9.076 1.224 12.729 5.444 13.875 1.212-8.081-2.252-6.669-5.444-13.875zm93.188 0c-3.192 7.2-6.651 5.794-5.439 13.875 4.22-1.146 6.703-4.799 5.439-13.875zm-81.305 1.1c-1.913 5.33-5.565 2.822-5.468 10.509 5.444-1.57 5.346-5.752 5.468-10.506zm69.427 0c.122 4.75.023 8.936 5.468 10.509.096-7.684-3.555-5.176-5.468-10.506zm-68.353 8.5c-.63 6.261-5.239 4.544-3.068 12.805 5.443-3.154 4.213-7.648 3.068-12.8zm67.277 0c-1.145 5.154-2.379 9.646 3.068 12.805 2.171-8.256-2.438-6.539-3.07-12.8zm-80.381 2.012c1.077 10.125 4.738 13.4 9.6 13.5-.87-9.041-4.221-6.589-9.6-13.5zm93.485 0c-5.378 6.911-8.734 4.459-9.6 13.5 4.858-.104 8.523-3.375 9.6-13.5zm-77.106 6.192c1.125 6.9-4.318 6.376.388 14.618 4.937-4.957 2.323-9.416-.388-14.618zm60.726 0c-2.712 5.2-5.33 9.661-.393 14.618 4.705-8.242-.733-7.718.393-14.618zm-74.218 5.913c4.068 10.557 8.94 13.014 14.183 11.725-3.529-9.451-6.423-5.855-14.183-11.725zm87.706 0c-7.759 5.87-10.649 2.274-14.178 11.725 5.243 1.289 10.111-1.168 14.178-11.725zm-68.661 1.529c3.315 7.025-2.655 8.136 4.9 15.5 3.747-6.808-.411-10.775-4.9-15.5zm49.616 0c-4.489 4.726-8.65 8.692-4.895 15.5 7.55-7.364 1.58-8.475 4.895-15.5zm-41.969 5.936c5.8 6.388-.18 9.509 10.234 14.879 1.778-8.452-3.934-11.316-10.234-14.879zm34.329 0c-6.306 3.563-12.014 6.427-10.235 14.875 10.414-5.37 4.43-8.491 10.234-14.879zm-54.567 4.516c7.577 10.031 13.531 11.159 18.738 8.18-6.665-9.013-8.654-4.287-18.738-8.18zm74.8 0c-10.085 3.893-12.068-.833-18.732 8.18 5.205 2.979 11.154 1.85 18.732-8.18zm-50.908 9.411c-3.435-.013-6.525 1.78-13.638 1.269 11.309 8.2 18 7.463 22.566 2.6-4.066-3.011-6.577-3.863-8.928-3.872zm27.016 0c-2.35.009-4.858.861-8.923 3.872 4.562 4.86 11.257 5.593 22.566-2.6-7.113.511-10.208-1.282-13.643-1.269zm-16.721 4.341c.809.745 1.621 1.44 2.428 2.1-6.524 3.191-15.507 7.452-17.576 7.115l1.713 7.068c-.028-4.433 8.019-6.609 16.786-13.444 8.768 6.837 16.815 9.011 16.786 13.444l1.714-7.068c-2.069.337-11.052-3.923-17.577-7.115.808-.657 1.619-1.352 2.429-2.1-.938.459-2.106 1.036-3.352 1.647-1.245-.611-2.415-1.189-3.352-1.647z" fill="url(#g)"/></svg>