<svg viewBox="0 0 120 120" xmlns="http://www.w3.org/2000/svg" xmlns:xlink="http://www.w3.org/1999/xlink"><linearGradient id="a" gradientUnits="userSpaceOnUse" x1="60" x2="60" y1="60" y2="103.84"><stop offset="0" stop-color="#fff" stop-opacity=".2"/><stop offset="1" stop-color="#fff"/></linearGradient><linearGradient id="b" gradientUnits="userSpaceOnUse" x1="110" x2="10" y1="85" y2="85"><stop offset="0" stop-color="#f0e755"/><stop offset=".223" stop-color="#fffb80"/><stop offset=".44" stop-color="#d17600"/><stop offset=".692" stop-color="#ffe681"/><stop offset=".993" stop-color="#d5a244"/></linearGradient><linearGradient id="c" x1="10" x2="110" xlink:href="#b" y1="35" y2="35"/><linearGradient id="d" gradientTransform="matrix(-.70710678 -.70710678 .70710678 -.70710678 60 144.853)" x1="60" x2="60" xlink:href="#a" y1="25.009" y2="94.991"/><linearGradient id="e" gradientUnits="userSpaceOnUse" x1="58.612" x2="58.612" y1="78.535" y2="43.733"><stop offset="0" stop-color="#2a385f"/><stop offset="1" stop-color="#15202b"/></linearGradient><linearGradient id="f" x1="59.862" x2="59.862" xlink:href="#b" y1="118.473" y2="18.128"/><path d="m0 0h120v120h-120z" fill="none"/><path d="m29 29h61.999v61.999h-61.999z" fill="#1ab3e2" transform="matrix(-.70710678 .70710678 -.70710678 -.70710678 144.853 60)"/><path d="m16.16 60 43.84 43.84 43.84-43.84z" fill="url(#a)" opacity=".4"/><path d="m103.84 60-43.84 43.84-43.84-43.84h-6.16l50 50 50-50z" fill="url(#b)"/><path d="m60 10-50 50h6.16l43.84-43.84 43.84 43.84h6.16z" fill="url(#c)"/><path d="m35.258 35.258h49.485v49.485h-49.485z" fill="url(#d)" transform="matrix(-.70710678 .70710678 -.70710678 -.70710678 144.853 60)"/><path d="m43.594 78.535 10.176-10.556c1.979-2.06 3.544-3.82 4.652-5.232a27.958 27.958 0 0 0 2.427-3.506 8.118 8.118 0 0 0 .887-2.041 6.2 6.2 0 0 0 .17-1.272 2.581 2.581 0 0 0 -.142-.854 1.919 1.919 0 0 0 -.378-.654 1.876 1.876 0 0 0 -.6-.449 1.919 1.919 0 0 0 -.827-.154 1.651 1.651 0 0 0 -1.4.535 2.417 2.417 0 0 0 -.548 1.658 8.413 8.413 0 0 0 .108 1.095l.249 1.754h-12.079v-1.537a14.765 14.765 0 0 1 .99-5.488 12.732 12.732 0 0 1 2.821-4.334 12.528 12.528 0 0 1 4.318-2.8 14.646 14.646 0 0 1 5.377-.967 15.14 15.14 0 0 1 5.314.917 12.984 12.984 0 0 1 4.3 2.607 12.124 12.124 0 0 1 2.863 4.009 12.3 12.3 0 0 1 1.028 5.034 11.846 11.846 0 0 1 -1.251 5.386 18.127 18.127 0 0 1 -3.779 4.83l-2.289 2.143h7.649v9.879z" fill="url(#e)"/><path d="m59.8 45.271a13.547 13.547 0 0 1 4.776.819 11.4 11.4 0 0 1 3.791 2.3 10.535 10.535 0 0 1 2.5 3.5 10.728 10.728 0 0 1 .9 4.406 10.285 10.285 0 0 1 -1.086 4.694 16.554 16.554 0 0 1 -3.466 4.41l-5.124 4.8h10v6.8h-24.88l7.665-7.952q3.033-3.158 4.756-5.35a29.479 29.479 0 0 0 2.562-3.71 9.747 9.747 0 0 0 1.044-2.459 7.722 7.722 0 0 0 .206-1.6 4.134 4.134 0 0 0 -.226-1.352 3.411 3.411 0 0 0 -1.763-1.989 3.4 3.4 0 0 0 -1.5-.307 3.207 3.207 0 0 0 -2.555 1.065 3.923 3.923 0 0 0 -.922 2.664 10.057 10.057 0 0 0 .123 1.312h-8.775a13.181 13.181 0 0 1 .881-4.919 11.163 11.163 0 0 1 2.48-3.813 10.959 10.959 0 0 1 3.792-2.459 13.067 13.067 0 0 1 4.816-.86m0-3.075a16.166 16.166 0 0 0 -5.941 1.074 14.063 14.063 0 0 0 -4.84 3.145 14.269 14.269 0 0 0 -3.163 4.851 16.3 16.3 0 0 0 -1.1 6.056v3.078h13.52q-.471.654-1.057 1.4c-1.079 1.374-2.612 3.1-4.555 5.119l-7.659 7.945-5.021 5.209h35.19v-12.955h-5.316a18.916 18.916 0 0 0 3.57-4.741 13.376 13.376 0 0 0 1.416-6.08 13.831 13.831 0 0 0 -1.166-5.654 13.655 13.655 0 0 0 -3.225-4.516 14.508 14.508 0 0 0 -4.8-2.916 16.635 16.635 0 0 0 -5.848-1.011zm-.09 13.182a1.086 1.086 0 0 1 .254-.024.738.738 0 0 1 .2.017.363.363 0 0 1 .082.07.406.406 0 0 1 .075.136 1.076 1.076 0 0 1 .057.351 4.745 4.745 0 0 1 -.135.946 5.129 5.129 0 0 1 -.441 1.077l-.152-1.062a7.246 7.246 0 0 1 -.091-.879.931.931 0 0 1 .155-.632z" fill="#fff"/><path d="m40.716 18.128c-.168.131-.333.263-.493.4.177-.135.346-.264.493-.4zm38.3 0c.147.136.318.265.492.4-.162-.137-.327-.269-.495-.4zm-38.816.421c-3.659 2.755-12.8 4.819-10.836 9.108 4.915.614 5.907-4.939 10.836-9.108zm39.334 0c4.924 4.169 5.92 9.723 10.841 9.108 1.958-4.289-7.182-6.353-10.841-9.108zm-51.193 4.507c-4.6 3.87-4.992 6.744-3.437 9.156 4.138-3.409 1.829-4.241 3.437-9.156zm63.042 0c1.607 4.914-.7 5.747 3.442 9.155 1.555-2.411 1.159-5.285-3.442-9.155zm-67.838 5.26c-4.377 5.047-4.308 8.27-2.182 10.646 3.949-4.462 1.272-4.974 2.182-10.646zm72.633 0c.909 5.672-1.767 6.186 2.182 10.646 2.125-2.376 2.194-5.599-2.182-10.646zm-62.531.5c-2.249 1.209-3.274.246-4.776.762a6.209 6.209 0 0 0 -2.5 1.96c3.346 1.623 5.132-.46 7.276-2.723zm52.434 0c2.145 2.262 3.931 4.345 7.276 2.722a6.221 6.221 0 0 0 -2.5-1.96c-1.5-.516-2.522.447-4.772-.762zm-55.713 4.891c-2.054 1.563-3.3.984-4.687 1.487-.829.3-1.7.992-2.826 2.769 3.953 1.2 5.552-1.4 7.513-4.256zm58.99 0c1.96 2.856 3.559 5.456 7.513 4.256-1.123-1.777-2-2.467-2.827-2.769-1.381-.5-2.633.076-4.686-1.487zm-70.258 1.316c-3.815 6.368-3.12 9.882-.336 12.072 3.458-5.642.436-5.689.336-12.072zm81.537 0c-.1 6.383-3.125 6.43.336 12.072 2.782-2.19 3.477-5.704-.339-12.072zm-73.037 4.577c-3.113 3.369-5.039.349-7.4 6.112 4.558.55 5.805-2.609 7.4-6.112zm64.528 0c1.594 3.5 2.842 6.662 7.4 6.112-2.361-5.763-4.286-2.743-7.4-6.112zm-76.607 3.622c-2.812 7.753-1.305 11.432 2.2 13.231 2.579-6.887-.735-6.291-2.2-13.231zm88.685 0c-1.461 6.94-4.775 6.343-2.2 13.231 3.5-1.8 5.008-5.478 2.2-13.231zm-78.431 3.19c-2.681 4.335-5.426 1.447-6.779 8.233 5.087-.366 5.782-4.074 6.779-8.233zm68.177 0c1 4.159 1.692 7.867 6.779 8.233-1.353-6.786-4.098-3.898-6.779-8.233zm-80.684 6.331c-1.268 9.076 1.224 12.729 5.444 13.875 1.212-8.081-2.252-6.669-5.444-13.875zm93.188 0c-3.192 7.2-6.651 5.794-5.439 13.875 4.22-1.146 6.703-4.799 5.439-13.875zm-81.305 1.1c-1.913 5.33-5.565 2.822-5.468 10.509 5.444-1.57 5.346-5.752 5.468-10.506zm69.427 0c.122 4.75.023 8.936 5.468 10.509.096-7.684-3.555-5.176-5.468-10.506zm-68.353 8.5c-.63 6.261-5.239 4.544-3.068 12.805 5.443-3.154 4.213-7.648 3.068-12.8zm67.277 0c-1.145 5.154-2.379 9.646 3.068 12.805 2.171-8.256-2.438-6.539-3.07-12.8zm-80.381 2.012c1.077 10.125 4.738 13.4 9.6 13.5-.87-9.041-4.221-6.589-9.6-13.5zm93.485 0c-5.378 6.911-8.734 4.459-9.6 13.5 4.858-.104 8.523-3.375 9.6-13.5zm-77.106 6.192c1.125 6.9-4.318 6.376.388 14.618 4.937-4.957 2.323-9.416-.388-14.618zm60.726 0c-2.712 5.2-5.33 9.661-.393 14.618 4.705-8.242-.733-7.718.393-14.618zm-74.218 5.913c4.068 10.557 8.94 13.014 14.183 11.725-3.529-9.451-6.423-5.855-14.183-11.725zm87.706 0c-7.759 5.87-10.649 2.274-14.178 11.725 5.243 1.289 10.111-1.168 14.178-11.725zm-68.661 1.529c3.315 7.025-2.655 8.136 4.9 15.5 3.747-6.808-.411-10.775-4.9-15.5zm49.616 0c-4.489 4.726-8.65 8.692-4.895 15.5 7.55-7.364 1.58-8.475 4.895-15.5zm-41.969 5.936c5.8 6.388-.18 9.509 10.234 14.879 1.778-8.452-3.934-11.316-10.234-14.879zm34.329 0c-6.306 3.563-12.014 6.427-10.235 14.875 10.414-5.37 4.43-8.491 10.234-14.879zm-54.567 4.516c7.577 10.031 13.531 11.159 18.738 8.18-6.665-9.013-8.654-4.287-18.738-8.18zm74.8 0c-10.085 3.893-12.068-.833-18.732 8.18 5.205 2.979 11.154 1.85 18.732-8.18zm-50.908 9.411c-3.435-.013-6.525 1.78-13.638 1.269 11.309 8.2 18 7.463 22.566 2.6-4.066-3.011-6.577-3.863-8.928-3.872zm27.016 0c-2.35.009-4.858.861-8.923 3.872 4.562 4.86 11.257 5.593 22.566-2.6-7.113.511-10.208-1.282-13.643-1.269zm-16.721 4.341c.809.745 1.621 1.44 2.428 2.1-6.524 3.191-15.507 7.452-17.576 7.115l1.713 7.068c-.028-4.433 8.019-6.609 16.786-13.444 8.768 6.837 16.815 9.011 16.786 13.444l1.714-7.068c-2.069.337-11.052-3.923-17.577-7.115.808-.657 1.619-1.352 2.429-2.1-.938.459-2.106 1.036-3.352 1.647-1.245-.611-2.415-1.189-3.352-1.647z" fill="url(#f)"/></svg>