<svg viewBox="0 0 120 120" xmlns="http://www.w3.org/2000/svg" xmlns:xlink="http://www.w3.org/1999/xlink"><linearGradient id="a" gradientUnits="userSpaceOnUse" x1="60" x2="60" y1="60" y2="110"><stop offset="0" stop-color="#fff" stop-opacity=".2"/><stop offset="1" stop-color="#fff"/></linearGradient><linearGradient id="b" gradientTransform="matrix(-.70710678 -.70710678 .70710678 -.70710678 60 144.853)" x1="60" x2="60" xlink:href="#a" y1="25.009" y2="94.991"/><linearGradient id="c" gradientUnits="userSpaceOnUse" x1="59.693" x2="59.693" y1="78.535" y2="44.553"><stop offset="0" stop-color="#2a385f"/><stop offset="1" stop-color="#15202b"/></linearGradient><path d="m0 0h120v120h-120z" fill="none"/><path d="m24.645 24.645h70.711v70.711h-70.711z" fill="#23c91b" transform="matrix(-.70710678 .70710678 -.70710678 -.70710678 144.853 60)"/><path d="m10 60 50 50 50-50z" fill="url(#a)" opacity=".4"/><path d="m35.258 35.258h49.485v49.485h-49.485z" fill="url(#b)" transform="matrix(-.70710678 .70710678 -.70710678 -.70710678 144.853 60)"/><path d="m60.021 78.535v-6.354h-14.921v-7.133l12.479-20.5h12.976v18.41h3.731v9.223h-3.731v6.354zm0-15.577v-4.944l-2.88 4.944z" fill="url(#c)"/><path d="m69.018 46.09v18.41h3.731v6.149h-3.731v6.351h-7.46v-6.356h-14.921v-5.165l11.806-19.389zm-14.551 18.41h7.091v-12.179zm17.626-21.48h-15.377l-.9 1.476-11.805 19.384-.449.736v9.1h14.922v6.354h13.609v-6.352h3.73v-12.3h-3.73v-18.403z" fill="#fff"/></svg>