<svg viewBox="0 0 120 120" xmlns="http://www.w3.org/2000/svg" xmlns:xlink="http://www.w3.org/1999/xlink"><linearGradient id="a" gradientUnits="userSpaceOnUse" x1="110" x2="10" y1="85" y2="85"><stop offset="0" stop-color="#f5f5f5"/><stop offset=".234" stop-color="#f0f3f2"/><stop offset=".441" stop-color="#c2c3c5"/><stop offset=".786" stop-color="#f9f9f9"/><stop offset=".998" stop-color="#dadbdc"/></linearGradient><linearGradient id="b" x1="10" x2="110" xlink:href="#a" y1="35" y2="35"/><linearGradient id="c" gradientUnits="userSpaceOnUse" x1="60" x2="60" y1="60" y2="103.84"><stop offset="0" stop-color="#fff" stop-opacity=".2"/><stop offset="1" stop-color="#fff"/></linearGradient><linearGradient id="d" gradientTransform="matrix(-.70710678 -.70710678 .70710678 -.70710678 60 144.853)" x1="60" x2="60" xlink:href="#c" y1="25.009" y2="94.991"/><linearGradient id="e" gradientUnits="userSpaceOnUse" x1="59.685" x2="59.685" y1="79.395" y2="44.553"><stop offset="0" stop-color="#2a385f"/><stop offset="1" stop-color="#15202b"/></linearGradient><linearGradient id="f" x1="59.864" x2="59.864" xlink:href="#a" y1="118.473" y2="62.348"/><path d="m103.84 60-43.84 43.84-43.84-43.84h-6.16l50 50 50-50z" fill="url(#a)"/><path d="m60 10-50 50h6.16l43.84-43.84 43.84 43.84h6.16z" fill="url(#b)"/><path d="m29 29h61.999v61.999h-61.999z" fill="#99d111" transform="matrix(-.70710678 .70710678 -.70710678 -.70710678 144.853 60)"/><path d="m16.16 60 43.84 43.84 43.84-43.84z" fill="url(#c)" opacity=".4"/><path d="m35.258 35.258h49.485v49.485h-49.485z" fill="url(#d)" transform="matrix(-.70710678 .70710678 -.70710678 -.70710678 144.853 60)"/><path d="m58.278 79.4a22.059 22.059 0 0 1 -5.706-.728 18.833 18.833 0 0 1 -5.155-2.254l-.857-.54 1.776-11.278.048.042 3.127-20.093h19.045v9.879h-10.921l-.023.144q.395-.021.8-.021a12.952 12.952 0 0 1 4.926.934 11.6 11.6 0 0 1 6.539 6.539 13.083 13.083 0 0 1 .934 4.976 12.259 12.259 0 0 1 -1.063 5.15 11.278 11.278 0 0 1 -3.011 3.95 13.3 13.3 0 0 1 -4.629 2.463 19.484 19.484 0 0 1 -5.83.837zm-7.85-13a14.992 14.992 0 0 0 3.788 2.439 8.735 8.735 0 0 0 3.448.8 4.006 4.006 0 0 0 2.849-.922 2.788 2.788 0 0 0 .943-2.174 2.875 2.875 0 0 0 -1.3-2.469 6.866 6.866 0 0 0 -4.132-1.117 12.578 12.578 0 0 0 -2.557.275 12.272 12.272 0 0 0 -2.586.857l-2.054.937z" fill="url(#e)"/><path d="m69.019 46.09v6.81h-10.7l-.532 3.4c.491-.054.943-.1 1.352-.143s.834-.062 1.271-.062a11.377 11.377 0 0 1 4.345.82 10.077 10.077 0 0 1 5.7 5.7 11.516 11.516 0 0 1 .818 4.385 10.7 10.7 0 0 1 -.922 4.509 9.727 9.727 0 0 1 -2.6 3.423 11.727 11.727 0 0 1 -4.1 2.172 17.887 17.887 0 0 1 -5.371.758 20.442 20.442 0 0 1 -5.308-.675 17.223 17.223 0 0 1 -4.734-2.071l1.189-7.543a16.444 16.444 0 0 0 4.181 2.685 10.2 10.2 0 0 0 4.058.923 5.5 5.5 0 0 0 3.894-1.332 4.322 4.322 0 0 0 1.435-3.3 4.393 4.393 0 0 0 -1.926-3.709 8.321 8.321 0 0 0 -5.042-1.415 14 14 0 0 0 -2.871.309 13.748 13.748 0 0 0 -2.91.962l2.583-16.6h16.19m3.074-3.074h-21.9l-.405 2.6-2.5 16.059-.044-.038-.859 5.452-1.185 7.538-.316 2 1.716 1.08a20.357 20.357 0 0 0 5.576 2.439 23.6 23.6 0 0 0 6.1.78 21.043 21.043 0 0 0 6.29-.9 14.848 14.848 0 0 0 5.159-2.753 12.819 12.819 0 0 0 3.418-4.494 13.785 13.785 0 0 0 1.205-5.785 14.633 14.633 0 0 0 -1.048-5.552 13.444 13.444 0 0 0 -2.926-4.454 13.1 13.1 0 0 0 -1.157-1.025h2.876v-12.953zm-20.439 22.406a10.645 10.645 0 0 1 2.125-.689 11.059 11.059 0 0 1 2.246-.244 5.415 5.415 0 0 1 3.222.818 1.345 1.345 0 0 1 .672 1.231 1.263 1.263 0 0 1 -.452 1.047 2.38 2.38 0 0 1 -1.8.512 7.235 7.235 0 0 1 -2.836-.67 13.248 13.248 0 0 1 -3.174-2.005z" fill="#fff"/><path d="m93.5 62.348c-1.145 5.154-2.379 9.646 3.068 12.805 2.173-8.261-2.436-6.544-3.068-12.805zm13.1 2.007c-5.378 6.911-8.734 4.459-9.6 13.5 4.864-.104 8.529-3.375 9.606-13.5zm-2.892 12.1c-7.759 5.87-10.649 2.274-14.178 11.725 5.249 1.294 10.117-1.163 14.184-11.72zm-77.483-14.107c-.63 6.261-5.239 4.544-3.068 12.805 5.443-3.159 4.213-7.653 3.068-12.805zm-13.1 2.007c1.077 10.125 4.738 13.4 9.6 13.5-.874-9.041-4.225-6.589-9.604-13.5zm16.375 6.192c1.125 6.9-4.318 6.376.388 14.618 4.937-4.957 2.323-9.416-.388-14.618zm60.726 0c-2.712 5.2-5.33 9.661-.393 14.618 4.705-8.242-.733-7.718.393-14.618zm-74.218 5.913c4.068 10.557 8.94 13.014 14.183 11.725-3.529-9.451-6.423-5.855-14.183-11.725zm19.045 1.529c3.315 7.025-2.655 8.136 4.9 15.5 3.747-6.808-.411-10.775-4.9-15.5zm49.616 0c-4.489 4.726-8.65 8.692-4.895 15.5 7.55-7.364 1.58-8.475 4.895-15.5zm-41.969 5.936c5.8 6.388-.18 9.509 10.234 14.879 1.778-8.452-3.934-11.316-10.234-14.879zm34.329 0c-6.306 3.563-12.014 6.427-10.235 14.875 10.414-5.37 4.43-8.491 10.234-14.879zm-54.567 4.516c7.577 10.031 13.531 11.159 18.738 8.18-6.665-9.013-8.654-4.287-18.738-8.18zm74.8 0c-10.085 3.893-12.068-.833-18.732 8.18 5.205 2.979 11.154 1.85 18.732-8.18zm-50.908 9.411c-3.435-.013-6.525 1.78-13.638 1.269 11.309 8.2 18 7.463 22.566 2.6-4.066-3.011-6.577-3.863-8.928-3.872zm27.016 0c-2.35.009-4.858.861-8.923 3.872 4.562 4.86 11.257 5.593 22.566-2.6-7.113.511-10.208-1.282-13.643-1.269zm-16.721 4.341c.809.745 1.621 1.44 2.428 2.1-6.524 3.191-15.507 7.452-17.576 7.115l1.713 7.068c-.028-4.433 8.019-6.609 16.786-13.444 8.768 6.837 16.815 9.011 16.786 13.444l1.714-7.068c-2.069.337-11.052-3.923-17.577-7.115.808-.657 1.619-1.352 2.429-2.1-.938.459-2.106 1.036-3.352 1.647-1.245-.611-2.415-1.189-3.352-1.647z" fill="url(#f)"/><path d="m0 0h120v120h-120z" fill="none"/></svg>