<svg viewBox="0 0 120 120" xmlns="http://www.w3.org/2000/svg" xmlns:xlink="http://www.w3.org/1999/xlink"><linearGradient id="a" gradientUnits="userSpaceOnUse" x1="60" x2="60" y1="60" y2="110"><stop offset="0" stop-color="#fff" stop-opacity=".2"/><stop offset="1" stop-color="#fff"/></linearGradient><linearGradient id="b" gradientTransform="matrix(-.70710678 -.70710678 .70710678 -.70710678 60 144.853)" x1="60" x2="60" xlink:href="#a" y1="25.009" y2="94.991"/><linearGradient id="c" gradientUnits="userSpaceOnUse" x1="60.021" x2="60.021" y1="79.396" y2="44.553"><stop offset="0" stop-color="#2a385f"/><stop offset="1" stop-color="#15202b"/></linearGradient><path d="m0 0h120v120h-120z" fill="none"/><path d="m24.645 24.645h70.711v70.711h-70.711z" fill="#e5bb0c" transform="matrix(-.70710678 .70710678 -.70710678 -.70710678 144.853 60)"/><path d="m10 60 50 50 50-50z" fill="url(#a)" opacity=".4"/><path d="m35.258 35.258h49.485v49.485h-49.485z" fill="url(#b)" transform="matrix(-.70710678 .70710678 -.70710678 -.70710678 144.853 60)"/><path d="m60.041 79.4a17.234 17.234 0 0 1 -6.03-1 14.033 14.033 0 0 1 -4.621-2.77 12.2 12.2 0 0 1 -2.973-4.147 12.471 12.471 0 0 1 -1.03-5.02 17.552 17.552 0 0 1 1.269-6.226 23.5 23.5 0 0 1 3.833-6.431l7.639-9.253h13.4l-7.939 9.128a11.206 11.206 0 0 1 3.933.971 11.851 11.851 0 0 1 3.766 2.708 12.417 12.417 0 0 1 2.48 4 13.377 13.377 0 0 1 .883 4.861 13.07 13.07 0 0 1 -1.025 5.175 12.292 12.292 0 0 1 -2.969 4.204 13.856 13.856 0 0 1 -4.627 2.8 17.123 17.123 0 0 1 -5.989 1zm-.041-16.606a3.287 3.287 0 0 0 -1.363.278 3.765 3.765 0 0 0 -1.946 1.944 3.493 3.493 0 0 0 0 2.729 3.768 3.768 0 0 0 1.947 1.945 3.485 3.485 0 0 0 2.728 0 3.768 3.768 0 0 0 1.157-.79 3.806 3.806 0 0 0 .79-1.157 3.506 3.506 0 0 0 0-2.727 3.8 3.8 0 0 0 -.789-1.156 3.763 3.763 0 0 0 -1.156-.788 3.3 3.3 0 0 0 -1.368-.278z" fill="url(#c)"/><path d="m68.158 46.09-8.773 10.084h.164a6.256 6.256 0 0 1 1.886-.841 7.009 7.009 0 0 1 1.311-.143 9.85 9.85 0 0 1 4.141.861 10.262 10.262 0 0 1 3.279 2.357 10.848 10.848 0 0 1 2.173 3.5 11.806 11.806 0 0 1 .778 4.3 11.51 11.51 0 0 1 -.9 4.57 10.742 10.742 0 0 1 -2.6 3.69 12.284 12.284 0 0 1 -4.119 2.48 17.073 17.073 0 0 1 -10.946 0 12.453 12.453 0 0 1 -4.12-2.46 10.614 10.614 0 0 1 -2.6-3.628 10.892 10.892 0 0 1 -.9-4.406 15.983 15.983 0 0 1 1.168-5.677 21.832 21.832 0 0 1 3.587-6.006l7.173-8.69h9.306m-8.166 25.424a4.846 4.846 0 0 0 1.988-.41 5.309 5.309 0 0 0 2.727-2.726 5.036 5.036 0 0 0 0-3.976 5.309 5.309 0 0 0 -2.727-2.726 5.025 5.025 0 0 0 -3.976 0 5.312 5.312 0 0 0 -2.726 2.726 5.025 5.025 0 0 0 0 3.976 5.312 5.312 0 0 0 2.726 2.731 4.842 4.842 0 0 0 1.988.41m14.907-28.49h-17.507l-.923 1.118-7.173 8.69a25.025 25.025 0 0 0 -4.087 6.864 19.089 19.089 0 0 0 -1.372 6.776 14.006 14.006 0 0 0 1.163 5.632 13.723 13.723 0 0 0 3.344 4.667 15.582 15.582 0 0 0 5.123 3.073 20.114 20.114 0 0 0 13.092 0 15.386 15.386 0 0 0 5.133-3.11 13.832 13.832 0 0 0 3.343-4.73 14.614 14.614 0 0 0 1.149-5.778 14.907 14.907 0 0 0 -.987-5.416 13.944 13.944 0 0 0 -2.788-4.487 13.373 13.373 0 0 0 -4.253-3.06 12.318 12.318 0 0 0 -1.634-.609l3.947-4.537zm-14.907 25.411a1.792 1.792 0 0 1 -.739-.145 2.257 2.257 0 0 1 -.693-.47 2.232 2.232 0 0 1 -.471-.693 1.958 1.958 0 0 1 0-1.479 2.241 2.241 0 0 1 1.165-1.168 1.96 1.96 0 0 1 1.482 0 2.231 2.231 0 0 1 1.165 1.168 1.967 1.967 0 0 1 0 1.48 2.245 2.245 0 0 1 -1.164 1.161 1.8 1.8 0 0 1 -.74.145z" fill="#fff"/></svg>