<svg viewBox="0 0 120 120" xmlns="http://www.w3.org/2000/svg" xmlns:xlink="http://www.w3.org/1999/xlink"><linearGradient id="a" gradientUnits="userSpaceOnUse" x1="60" x2="60" y1="60" y2="103.84"><stop offset="0" stop-color="#fff" stop-opacity=".2"/><stop offset="1" stop-color="#fff"/></linearGradient><linearGradient id="b" gradientUnits="userSpaceOnUse" x1="110" x2="10" y1="85" y2="85"><stop offset="0" stop-color="#f5f5f5"/><stop offset=".234" stop-color="#f0f3f2"/><stop offset=".441" stop-color="#c2c3c5"/><stop offset=".786" stop-color="#f9f9f9"/><stop offset=".998" stop-color="#dadbdc"/></linearGradient><linearGradient id="c" x1="10" x2="110" xlink:href="#b" y1="35" y2="35"/><linearGradient id="d" gradientTransform="matrix(-.70710678 -.70710678 .70710678 -.70710678 60 144.853)" x1="60" x2="60" xlink:href="#a" y1="25.009" y2="94.991"/><linearGradient id="e" gradientUnits="userSpaceOnUse" x1="60" x2="60" y1="79.354" y2="43.692"><stop offset="0" stop-color="#2a385f"/><stop offset="1" stop-color="#15202b"/></linearGradient><linearGradient id="f" x1="59.864" x2="59.864" xlink:href="#b" y1="118.473" y2="62.348"/><path d="m0 0h120v120h-120z" fill="none"/><path d="m29 29h61.999v61.999h-61.999z" fill="#ff6700" transform="matrix(-.70710678 .70710678 -.70710678 -.70710678 144.853 60)"/><path d="m16.16 60 43.84 43.84 43.84-43.84z" fill="url(#a)" opacity=".4"/><path d="m103.84 60-43.84 43.84-43.84-43.84h-6.16l50 50 50-50z" fill="url(#b)"/><path d="m60 10-50 50h6.16l43.84-43.84 43.84 43.84h6.16z" fill="url(#c)"/><path d="m35.258 35.258h49.485v49.485h-49.485z" fill="url(#d)" transform="matrix(-.70710678 .70710678 -.70710678 -.70710678 144.853 60)"/><path d="m60 79.354a17.07 17.07 0 0 1 -5.112-.746 13.6 13.6 0 0 1 -4.228-2.154 10.622 10.622 0 0 1 -2.919-3.4 9.541 9.541 0 0 1 3.334-12.466 8.172 8.172 0 0 1 -3.147-6.707 9.474 9.474 0 0 1 .937-4.225 9.906 9.906 0 0 1 2.546-3.226 11.215 11.215 0 0 1 3.842-2.049 16.764 16.764 0 0 1 9.493 0 11.226 11.226 0 0 1 3.843 2.048 9.934 9.934 0 0 1 2.546 3.225 9.482 9.482 0 0 1 .937 4.227 10.406 10.406 0 0 1 -.294 2.574 6.564 6.564 0 0 1 -1.1 2.3 8.662 8.662 0 0 1 -1.889 1.823l-.035.026a9.15 9.15 0 0 1 4.586 8.034 9.283 9.283 0 0 1 -1.056 4.362 10.466 10.466 0 0 1 -2.875 3.408 13.589 13.589 0 0 1 -4.2 2.176 16.911 16.911 0 0 1 -5.209.77zm0-13.854a2 2 0 0 0 -1.525.625 2.057 2.057 0 0 0 -.627 1.526 2.351 2.351 0 0 0 .637 1.62 2.185 2.185 0 0 0 .694.484 1.936 1.936 0 0 0 .821.172 1.837 1.837 0 0 0 .776-.17 2.489 2.489 0 0 0 .742-.508 2.178 2.178 0 0 0 .469-.7 2.141 2.141 0 0 0 .166-.855 2.074 2.074 0 0 0 -.637-1.557 2.028 2.028 0 0 0 -1.516-.637zm0-13.363a1.752 1.752 0 0 0 -1.333.534 1.7 1.7 0 0 0 -.532 1.289 1.837 1.837 0 0 0 .544 1.364 1.719 1.719 0 0 0 1.321.543 1.628 1.628 0 0 0 .7-.142 1.989 1.989 0 0 0 .608-.43 2.108 2.108 0 0 0 .416-.633 1.639 1.639 0 0 0 .14-.661 1.766 1.766 0 0 0 -.544-1.322 1.717 1.717 0 0 0 -1.32-.542z" fill="url(#e)"/><path d="m60 45.229a14.194 14.194 0 0 1 4.284.615 9.632 9.632 0 0 1 3.32 1.763 8.323 8.323 0 0 1 2.153 2.726 7.92 7.92 0 0 1 .779 3.546 8.885 8.885 0 0 1 -.247 2.193 5 5 0 0 1 -.84 1.762 7.113 7.113 0 0 1 -1.558 1.5 14.064 14.064 0 0 1 -2.4 1.353q6.31 2.46 6.313 7.952a7.737 7.737 0 0 1 -.883 3.649 8.919 8.919 0 0 1 -2.459 2.91 12.042 12.042 0 0 1 -3.73 1.927 16.411 16.411 0 0 1 -9.387.021 12 12 0 0 1 -3.745-1.911 9.027 9.027 0 0 1 -2.5-2.91 7.672 7.672 0 0 1 -.9-3.69q0-5.615 6.109-7.952-4.839-2.007-4.838-6.8a7.907 7.907 0 0 1 .779-3.546 8.32 8.32 0 0 1 2.15-2.73 9.651 9.651 0 0 1 3.32-1.763 14.2 14.2 0 0 1 4.28-.615m0 12.171a3.142 3.142 0 0 0 1.352-.287 3.511 3.511 0 0 0 1.067-.759 3.665 3.665 0 0 0 .717-1.086 3.156 3.156 0 0 0 .264-1.268 3.305 3.305 0 0 0 -.983-2.4 3.253 3.253 0 0 0 -2.417-1 3.288 3.288 0 0 0 -2.419.983 3.243 3.243 0 0 0 -.983 2.378 3.356 3.356 0 0 0 .983 2.438 3.251 3.251 0 0 0 2.419 1.001m0 14.06a3.375 3.375 0 0 0 1.414-.308 3.977 3.977 0 0 0 1.189-.82 3.7 3.7 0 0 0 1.087-2.644 3.6 3.6 0 0 0 -1.09-2.64 3.679 3.679 0 0 0 -6.292 2.6 3.891 3.891 0 0 0 1.066 2.685 3.715 3.715 0 0 0 1.168.82 3.478 3.478 0 0 0 1.458.311m0-29.309a17.3 17.3 0 0 0 -5.21.758 12.73 12.73 0 0 0 -4.364 2.334 11.425 11.425 0 0 0 -2.939 3.725 10.993 10.993 0 0 0 -1.1 4.907 9.825 9.825 0 0 0 2.319 6.552 10.572 10.572 0 0 0 -3.59 8.2 10.744 10.744 0 0 0 1.269 5.145 12.11 12.11 0 0 0 3.334 3.892 15.089 15.089 0 0 0 4.7 2.4 19.478 19.478 0 0 0 11.257-.028 15.157 15.157 0 0 0 4.673-2.427 12 12 0 0 0 3.292-3.908 10.815 10.815 0 0 0 1.234-5.076 10.424 10.424 0 0 0 -3.661-8.129 9.308 9.308 0 0 0 .7-.831 8.106 8.106 0 0 0 1.352-2.836 11.978 11.978 0 0 0 .342-2.954 11 11 0 0 0 -1.095-4.905 11.451 11.451 0 0 0 -2.939-3.726 12.731 12.731 0 0 0 -4.367-2.335 17.289 17.289 0 0 0 -5.207-.758zm0 12.174c-.143 0-.153-.01-.223-.081a.311.311 0 0 1 -.105-.287.2.2 0 0 1 .083-.2c.064-.064.084-.083.245-.083.143 0 .156.012.224.082a.263.263 0 0 1 .1.246.642.642 0 0 1 -.13.231.477.477 0 0 1 -.138.1c-.006 0-.026 0-.057 0zm0 14.061a.413.413 0 0 1 -.183-.033.674.674 0 0 1 -.218-.145.744.744 0 0 1 -.157-.253.779.779 0 0 1 -.057-.308.529.529 0 0 1 .186-.449.48.48 0 0 1 .429-.165.5.5 0 0 1 .431.187.547.547 0 0 1 .185.468.6.6 0 0 1 -.042.249.644.644 0 0 1 -.145.221.922.922 0 0 1 -.284.194.322.322 0 0 1 -.145.034z" fill="#fff"/><path d="m26.225 62.348c-.63 6.261-5.239 4.544-3.068 12.805 5.443-3.159 4.213-7.653 3.068-12.805zm67.277 0c-1.145 5.154-2.379 9.646 3.068 12.805 2.171-8.261-2.438-6.544-3.07-12.805zm-80.381 2.007c1.077 10.125 4.738 13.4 9.6 13.5-.87-9.041-4.221-6.589-9.6-13.5zm93.485 0c-5.378 6.911-8.734 4.459-9.6 13.5 4.858-.104 8.523-3.375 9.6-13.5zm-77.106 6.192c1.125 6.9-4.318 6.376.388 14.618 4.937-4.957 2.323-9.416-.388-14.618zm60.726 0c-2.712 5.2-5.33 9.661-.393 14.618 4.705-8.242-.733-7.718.393-14.618zm-74.218 5.913c4.068 10.557 8.94 13.014 14.183 11.725-3.529-9.451-6.423-5.855-14.183-11.725zm87.706 0c-7.759 5.87-10.649 2.274-14.178 11.725 5.243 1.289 10.111-1.168 14.178-11.725zm-68.661 1.529c3.315 7.025-2.655 8.136 4.9 15.5 3.747-6.808-.411-10.775-4.9-15.5zm49.616 0c-4.489 4.726-8.65 8.692-4.895 15.5 7.55-7.364 1.58-8.475 4.895-15.5zm-41.969 5.936c5.8 6.388-.18 9.509 10.234 14.879 1.778-8.452-3.934-11.316-10.234-14.879zm34.329 0c-6.306 3.563-12.014 6.427-10.235 14.875 10.414-5.37 4.43-8.491 10.234-14.879zm-54.567 4.516c7.577 10.031 13.531 11.159 18.738 8.18-6.665-9.013-8.654-4.287-18.738-8.18zm74.8 0c-10.085 3.893-12.068-.833-18.732 8.18 5.205 2.979 11.154 1.85 18.732-8.18zm-50.908 9.411c-3.435-.013-6.525 1.78-13.638 1.269 11.309 8.2 18 7.463 22.566 2.6-4.066-3.011-6.577-3.863-8.928-3.872zm27.016 0c-2.35.009-4.858.861-8.923 3.872 4.562 4.86 11.257 5.593 22.566-2.6-7.113.511-10.208-1.282-13.643-1.269zm-16.721 4.341c.809.745 1.621 1.44 2.428 2.1-6.524 3.191-15.507 7.452-17.576 7.115l1.713 7.068c-.028-4.433 8.019-6.609 16.786-13.444 8.768 6.837 16.815 9.011 16.786 13.444l1.714-7.068c-2.069.337-11.052-3.923-17.577-7.115.808-.657 1.619-1.352 2.429-2.1-.938.459-2.106 1.036-3.352 1.647-1.245-.611-2.415-1.189-3.352-1.647z" fill="url(#f)"/></svg>