<svg viewBox="0 0 120 120" xmlns="http://www.w3.org/2000/svg" xmlns:xlink="http://www.w3.org/1999/xlink"><linearGradient id="a" gradientUnits="userSpaceOnUse" x1="60" x2="60" y1="60" y2="110"><stop offset="0" stop-color="#fff" stop-opacity=".2"/><stop offset="1" stop-color="#fff"/></linearGradient><linearGradient id="b" gradientTransform="matrix(-.70710678 -.70710678 .70710678 -.70710678 60 144.853)" x1="60" x2="60" xlink:href="#a" y1="25.009" y2="94.991"/><linearGradient id="c" gradientUnits="userSpaceOnUse" x1="59.979" x2="59.979" y1="78.535" y2="43.692"><stop offset="0" stop-color="#2a385f"/><stop offset="1" stop-color="#15202b"/></linearGradient><path d="m0 0h120v120h-120z" fill="none"/><path d="m24.645 24.645h70.711v70.711h-70.711z" fill="#ef165e" transform="matrix(-.70710678 .70710678 -.70710678 -.70710678 144.853 60)"/><path d="m10 60 50 50 50-50z" fill="url(#a)" opacity=".4"/><path d="m35.258 35.258h49.485v49.485h-49.485z" fill="url(#b)" transform="matrix(-.70710678 .70710678 -.70710678 -.70710678 144.853 60)"/><path d="m48.468 78.535 7.941-9.128a11.462 11.462 0 0 1 -7.728-3.689 12.551 12.551 0 0 1 -2.453-3.988 13.4 13.4 0 0 1 -.882-4.859 13.1 13.1 0 0 1 1.024-5.171 12.326 12.326 0 0 1 2.972-4.213 13.891 13.891 0 0 1 4.629-2.794 18.586 18.586 0 0 1 12.017 0 14.067 14.067 0 0 1 4.621 2.767 12.225 12.225 0 0 1 2.975 4.14 12.489 12.489 0 0 1 1.029 5.021 17.547 17.547 0 0 1 -1.269 6.226 23.449 23.449 0 0 1 -3.833 6.431l-7.639 9.253zm11.532-25.415a3.3 3.3 0 0 0 -1.364.278 3.78 3.78 0 0 0 -1.945 1.943 3.494 3.494 0 0 0 0 2.727 3.775 3.775 0 0 0 1.946 1.947 3.479 3.479 0 0 0 2.728 0 3.754 3.754 0 0 0 1.158-.788 3.792 3.792 0 0 0 .79-1.159 3.5 3.5 0 0 0 0-2.728 3.784 3.784 0 0 0 -1.949-1.94 3.307 3.307 0 0 0 -1.364-.28z" fill="url(#c)"/><path d="m59.959 45.229a15.652 15.652 0 0 1 5.493.9 12.453 12.453 0 0 1 4.119 2.459 10.646 10.646 0 0 1 2.6 3.628 10.9 10.9 0 0 1 .9 4.407 15.957 15.957 0 0 1 -1.163 5.677 21.788 21.788 0 0 1 -3.587 6.005l-7.173 8.695h-9.3l8.773-10.084h-.165a6.206 6.206 0 0 1 -1.885.84 6.944 6.944 0 0 1 -1.312.144 9.967 9.967 0 0 1 -7.44-3.218 11.009 11.009 0 0 1 -2.153-3.505 11.806 11.806 0 0 1 -.778-4.3 11.5 11.5 0 0 1 .9-4.571 10.721 10.721 0 0 1 2.6-3.689 12.269 12.269 0 0 1 4.12-2.48 15.51 15.51 0 0 1 5.451-.9m.041 16.594a4.85 4.85 0 0 0 1.989-.41 5.312 5.312 0 0 0 2.726-2.721 5.038 5.038 0 0 0 0-3.977 5.315 5.315 0 0 0 -2.726-2.725 5.025 5.025 0 0 0 -3.976 0 5.312 5.312 0 0 0 -2.727 2.725 5.027 5.027 0 0 0 0 3.977 5.309 5.309 0 0 0 2.727 2.726 4.834 4.834 0 0 0 1.987.41m-.041-19.676a18.644 18.644 0 0 0 -6.525 1.095 15.4 15.4 0 0 0 -5.134 3.101 13.836 13.836 0 0 0 -3.34 4.737 14.621 14.621 0 0 0 -1.148 5.778 14.923 14.923 0 0 0 .986 5.416 14.088 14.088 0 0 0 2.756 4.473 13.025 13.025 0 0 0 4.277 3.078 12.4 12.4 0 0 0 1.641.607l-3.949 4.535-4.43 5.092h17.507l.922-1.117 7.173-8.69a25.018 25.018 0 0 0 4.085-6.865 19.086 19.086 0 0 0 1.371-6.775 14.022 14.022 0 0 0 -1.158-5.635 13.768 13.768 0 0 0 -3.344-4.666 15.6 15.6 0 0 0 -5.122-3.074 18.8 18.8 0 0 0 -6.568-1.095zm.041 16.597a1.779 1.779 0 0 1 -.737-.145 2.223 2.223 0 0 1 -1.163-1.161 1.963 1.963 0 0 1 0-1.481 2.241 2.241 0 0 1 1.16-1.17 1.95 1.95 0 0 1 1.483 0 2.237 2.237 0 0 1 1.164 1.167 1.961 1.961 0 0 1 0 1.48 2.243 2.243 0 0 1 -.469.689 2.266 2.266 0 0 1 -.693.471 1.792 1.792 0 0 1 -.741.146z" fill="#fff"/></svg>