<svg viewBox="0 0 120 120" xmlns="http://www.w3.org/2000/svg" xmlns:xlink="http://www.w3.org/1999/xlink"><linearGradient id="a" gradientUnits="userSpaceOnUse" x1="60" x2="60" y1="60" y2="103.84"><stop offset="0" stop-color="#fff" stop-opacity=".2"/><stop offset="1" stop-color="#fff"/></linearGradient><linearGradient id="b" gradientUnits="userSpaceOnUse" x1="110" x2="10" y1="85" y2="85"><stop offset="0" stop-color="#f5f5f5"/><stop offset=".234" stop-color="#f0f3f2"/><stop offset=".441" stop-color="#c2c3c5"/><stop offset=".786" stop-color="#f9f9f9"/><stop offset=".998" stop-color="#dadbdc"/></linearGradient><linearGradient id="c" x1="10" x2="110" xlink:href="#b" y1="35" y2="35"/><linearGradient id="d" gradientTransform="matrix(-.70710678 -.70710678 .70710678 -.70710678 60 144.853)" x1="60" x2="60" xlink:href="#a" y1="25.009" y2="94.991"/><linearGradient id="e" gradientUnits="userSpaceOnUse" x1="59.979" x2="59.979" y1="78.535" y2="43.692"><stop offset="0" stop-color="#2a385f"/><stop offset="1" stop-color="#15202b"/></linearGradient><linearGradient id="f" x1="59.864" x2="59.864" xlink:href="#b" y1="118.473" y2="62.348"/><path d="m0 0h120v120h-120z" fill="none"/><path d="m29 29h61.999v61.999h-61.999z" fill="#ef165e" transform="matrix(-.70710678 .70710678 -.70710678 -.70710678 144.853 60)"/><path d="m16.16 60 43.84 43.84 43.84-43.84z" fill="url(#a)" opacity=".4"/><path d="m103.84 60-43.84 43.84-43.84-43.84h-6.16l50 50 50-50z" fill="url(#b)"/><path d="m60 10-50 50h6.16l43.84-43.84 43.84 43.84h6.16z" fill="url(#c)"/><path d="m35.258 35.258h49.485v49.485h-49.485z" fill="url(#d)" transform="matrix(-.70710678 .70710678 -.70710678 -.70710678 144.853 60)"/><path d="m48.468 78.535 7.94-9.128a11.4 11.4 0 0 1 -3.948-.969 11.513 11.513 0 0 1 -3.779-2.72 12.559 12.559 0 0 1 -2.452-3.987 13.391 13.391 0 0 1 -.883-4.86 13.11 13.11 0 0 1 1.024-5.171 12.326 12.326 0 0 1 2.972-4.213 13.891 13.891 0 0 1 4.629-2.794 18.586 18.586 0 0 1 12.017 0 14.064 14.064 0 0 1 4.621 2.767 12.245 12.245 0 0 1 2.975 4.14 12.489 12.489 0 0 1 1.029 5.021 17.552 17.552 0 0 1 -1.269 6.227 23.439 23.439 0 0 1 -3.834 6.43l-7.637 9.253zm11.532-25.414a3.283 3.283 0 0 0 -1.363.277 3.784 3.784 0 0 0 -1.946 1.944 3.493 3.493 0 0 0 0 2.729 3.777 3.777 0 0 0 1.945 1.944 3.494 3.494 0 0 0 2.727 0 3.767 3.767 0 0 0 1.159-.789 3.813 3.813 0 0 0 .791-1.159 3.506 3.506 0 0 0 0-2.727 3.777 3.777 0 0 0 -1.948-1.94 3.3 3.3 0 0 0 -1.365-.279z" fill="url(#e)"/><path d="m59.959 45.229a15.675 15.675 0 0 1 5.493.9 12.487 12.487 0 0 1 4.119 2.459 10.656 10.656 0 0 1 2.6 3.628 10.9 10.9 0 0 1 .9 4.407 15.957 15.957 0 0 1 -1.163 5.677 21.813 21.813 0 0 1 -3.586 6.006l-7.174 8.694h-9.3l8.773-10.083h-.165a6.206 6.206 0 0 1 -1.885.84 6.936 6.936 0 0 1 -1.312.143 9.952 9.952 0 0 1 -7.44-3.217 11.006 11.006 0 0 1 -2.152-3.505 11.778 11.778 0 0 1 -.779-4.3 11.5 11.5 0 0 1 .9-4.571 10.721 10.721 0 0 1 2.6-3.689 12.311 12.311 0 0 1 4.12-2.48 15.533 15.533 0 0 1 5.451-.9m.041 16.593a4.819 4.819 0 0 0 1.989-.411 5.3 5.3 0 0 0 2.726-2.72 5.036 5.036 0 0 0 0-3.976 5.312 5.312 0 0 0 -2.726-2.726 5.025 5.025 0 0 0 -3.976 0 5.309 5.309 0 0 0 -2.727 2.726 5.025 5.025 0 0 0 0 3.976 5.293 5.293 0 0 0 2.727 2.725 4.806 4.806 0 0 0 1.987.406m-.041-19.676a18.644 18.644 0 0 0 -6.525 1.095 15.42 15.42 0 0 0 -5.134 3.107 13.827 13.827 0 0 0 -3.34 4.737 14.612 14.612 0 0 0 -1.148 5.777 14.923 14.923 0 0 0 .986 5.416 14.126 14.126 0 0 0 2.752 4.473 13.056 13.056 0 0 0 4.278 3.079 12.594 12.594 0 0 0 1.641.606l-3.946 4.535-4.43 5.092h17.507l.922-1.117 7.173-8.69a24.983 24.983 0 0 0 4.085-6.865 19.082 19.082 0 0 0 1.371-6.775 14.022 14.022 0 0 0 -1.158-5.635 13.777 13.777 0 0 0 -3.344-4.666 15.6 15.6 0 0 0 -5.122-3.073 18.778 18.778 0 0 0 -6.568-1.1zm.041 16.601a1.774 1.774 0 0 1 -.734-.143 2.221 2.221 0 0 1 -1.166-1.162 1.961 1.961 0 0 1 0-1.48 2.238 2.238 0 0 1 1.16-1.171 1.962 1.962 0 0 1 1.483 0 2.234 2.234 0 0 1 1.164 1.168 1.958 1.958 0 0 1 0 1.479 2.227 2.227 0 0 1 -1.16 1.158 1.776 1.776 0 0 1 -.743.147z" fill="#fff"/><path d="m26.225 62.348c-.63 6.261-5.239 4.544-3.068 12.805 5.443-3.159 4.213-7.653 3.068-12.805zm67.277 0c-1.145 5.154-2.379 9.646 3.068 12.805 2.171-8.261-2.438-6.544-3.07-12.805zm-80.381 2.007c1.077 10.125 4.738 13.4 9.6 13.5-.87-9.041-4.221-6.589-9.6-13.5zm93.485 0c-5.378 6.911-8.734 4.459-9.6 13.5 4.858-.104 8.523-3.375 9.6-13.5zm-77.106 6.192c1.125 6.9-4.318 6.376.388 14.618 4.937-4.957 2.323-9.416-.388-14.618zm60.726 0c-2.712 5.2-5.33 9.661-.393 14.618 4.705-8.242-.733-7.718.393-14.618zm-74.218 5.913c4.068 10.557 8.94 13.014 14.183 11.725-3.529-9.451-6.423-5.855-14.183-11.725zm87.706 0c-7.759 5.87-10.649 2.274-14.178 11.725 5.243 1.289 10.111-1.168 14.178-11.725zm-68.661 1.529c3.315 7.025-2.655 8.136 4.9 15.5 3.747-6.808-.411-10.775-4.9-15.5zm49.616 0c-4.489 4.726-8.65 8.692-4.895 15.5 7.55-7.364 1.58-8.475 4.895-15.5zm-41.969 5.936c5.8 6.388-.18 9.509 10.234 14.879 1.778-8.452-3.934-11.316-10.234-14.879zm34.329 0c-6.306 3.563-12.014 6.427-10.235 14.875 10.414-5.37 4.43-8.491 10.234-14.879zm-54.567 4.516c7.577 10.031 13.531 11.159 18.738 8.18-6.665-9.013-8.654-4.287-18.738-8.18zm74.8 0c-10.085 3.893-12.068-.833-18.732 8.18 5.205 2.979 11.154 1.85 18.732-8.18zm-50.908 9.411c-3.435-.013-6.525 1.78-13.638 1.269 11.309 8.2 18 7.463 22.566 2.6-4.066-3.011-6.577-3.863-8.928-3.872zm27.016 0c-2.35.009-4.858.861-8.923 3.872 4.562 4.86 11.257 5.593 22.566-2.6-7.113.511-10.208-1.282-13.643-1.269zm-16.721 4.341c.809.745 1.621 1.44 2.428 2.1-6.524 3.191-15.507 7.452-17.576 7.115l1.713 7.068c-.028-4.433 8.019-6.609 16.786-13.444 8.768 6.837 16.815 9.011 16.786 13.444l1.714-7.068c-2.069.337-11.052-3.923-17.577-7.115.808-.657 1.619-1.352 2.429-2.1-.938.459-2.106 1.036-3.352 1.647-1.245-.611-2.415-1.189-3.352-1.647z" fill="url(#f)"/></svg>