<svg viewBox="0 0 120 120" xmlns="http://www.w3.org/2000/svg" xmlns:xlink="http://www.w3.org/1999/xlink"><linearGradient id="a" gradientUnits="userSpaceOnUse" x1="60" x2="60" y1="60" y2="110"><stop offset="0" stop-color="#fff" stop-opacity=".2"/><stop offset="1" stop-color="#fff"/></linearGradient><linearGradient id="b" gradientTransform="matrix(-.70710678 -.70710678 .70710678 -.70710678 60 144.853)" x1="60" x2="60" xlink:href="#a" y1="25.009" y2="94.991"/><linearGradient id="c" gradientUnits="userSpaceOnUse" x1="45.366" x2="74.634" y1="60" y2="60"><stop offset="0" stop-color="#2a385f"/><stop offset="1" stop-color="#15202b"/></linearGradient><path d="m0 0h120v120h-120z" fill="none"/><path d="m24.645 24.645h70.711v70.711h-70.711z" fill="#2d2d2d" transform="matrix(-.70710678 .70710678 -.70710678 -.70710678 144.853 60)"/><path d="m10 60 50 50 50-50z" fill="url(#a)" opacity=".4"/><path d="m35.258 35.258h49.485v49.485h-49.485z" fill="url(#b)" transform="matrix(-.70710678 .70710678 -.70710678 -.70710678 144.853 60)"/><path d="m60.021 77.872a13.529 13.529 0 0 1 -5.982-1.323 13.679 13.679 0 0 1 -4.662-3.735 17.3 17.3 0 0 1 -2.977-5.665 25.329 25.329 0 0 1 0-14.34 17.084 17.084 0 0 1 2.98-5.649 13.81 13.81 0 0 1 4.657-3.709 13.653 13.653 0 0 1 16.605 3.715 17.317 17.317 0 0 1 2.958 5.643 25.329 25.329 0 0 1 0 14.34 17.54 17.54 0 0 1 -2.95 5.658 13.425 13.425 0 0 1 -4.671 3.744 13.563 13.563 0 0 1 -5.958 1.321zm0-25.537a2.025 2.025 0 0 0 -1.238.389 4.21 4.21 0 0 0 -1.172 1.386 9.034 9.034 0 0 0 -.884 2.487 17.411 17.411 0 0 0 0 6.783 9.333 9.333 0 0 0 .89 2.5 4.139 4.139 0 0 0 1.169 1.4 2.022 2.022 0 0 0 1.236.389 2.046 2.046 0 0 0 1.228-.4 3.878 3.878 0 0 0 1.15-1.369 9.868 9.868 0 0 0 .879-2.517 17.411 17.411 0 0 0 0-6.783 9.548 9.548 0 0 0 -.874-2.506 3.909 3.909 0 0 0 -1.151-1.36 2.08 2.08 0 0 0 -1.233-.399z" fill="url(#c)"/><path d="m60.021 43.665a11.852 11.852 0 0 1 9.427 4.468 15.72 15.72 0 0 1 2.686 5.144 23.806 23.806 0 0 1 0 13.405 15.952 15.952 0 0 1 -2.686 5.165 11.842 11.842 0 0 1 -4.139 3.32 12.073 12.073 0 0 1 -14.737-3.32 15.717 15.717 0 0 1 -2.706-5.165 23.806 23.806 0 0 1 0-13.4 15.49 15.49 0 0 1 2.706-5.144 12.212 12.212 0 0 1 4.14-3.3 11.97 11.97 0 0 1 5.309-1.168m0 25.538a3.593 3.593 0 0 0 2.111-.677 5.36 5.36 0 0 0 1.619-1.906 11.333 11.333 0 0 0 1.024-2.91 18.88 18.88 0 0 0 0-7.439 11.018 11.018 0 0 0 -1.024-2.912 5.414 5.414 0 0 0 -1.619-1.885 3.667 3.667 0 0 0 -4.243 0 5.685 5.685 0 0 0 -1.619 1.885 10.506 10.506 0 0 0 -1.045 2.912 18.88 18.88 0 0 0 0 7.439 10.794 10.794 0 0 0 1.045 2.91 5.623 5.623 0 0 0 1.619 1.906 3.562 3.562 0 0 0 2.132.677m0-28.612a15.067 15.067 0 0 0 -6.655 1.478 15.326 15.326 0 0 0 -5.174 4.118 18.588 18.588 0 0 0 -3.254 6.155 26.857 26.857 0 0 0 0 15.276 18.842 18.842 0 0 0 3.245 6.164 15.381 15.381 0 0 0 18.463 4.153 14.936 14.936 0 0 0 5.2-4.168 19.07 19.07 0 0 0 3.213-6.149 26.857 26.857 0 0 0 0-15.276 18.823 18.823 0 0 0 -3.219-6.147 14.929 14.929 0 0 0 -11.819-5.61zm0 25.538a.507.507 0 0 1 -.34-.1 2.647 2.647 0 0 1 -.718-.889 7.842 7.842 0 0 1 -.735-2.088 15.875 15.875 0 0 1 0-6.128 7.529 7.529 0 0 1 .724-2.063 2.687 2.687 0 0 1 .728-.888.507.507 0 0 1 .34-.1.54.54 0 0 1 .347.12 2.413 2.413 0 0 1 .681.834 8.037 8.037 0 0 1 .722 2.1 15.9 15.9 0 0 1 0 6.127 8.416 8.416 0 0 1 -.735 2.125 2.39 2.39 0 0 1 -.675.837.535.535 0 0 1 -.342.117z" fill="#fff"/></svg>