<svg viewBox="0 0 120 120" xmlns="http://www.w3.org/2000/svg" xmlns:xlink="http://www.w3.org/1999/xlink"><linearGradient id="a" gradientUnits="userSpaceOnUse" x1="60" x2="60" y1="60" y2="110"><stop offset="0" stop-color="#fff" stop-opacity=".2"/><stop offset="1" stop-color="#fff"/></linearGradient><linearGradient id="b" gradientTransform="matrix(-.70710678 -.70710678 .70710678 -.70710678 60 144.853)" x1="60" x2="60" xlink:href="#a" y1="25.009" y2="94.991"/><linearGradient id="c" gradientUnits="userSpaceOnUse" x1="58.612" x2="58.612" y1="78.535" y2="43.733"><stop offset="0" stop-color="#2a385f"/><stop offset="1" stop-color="#15202b"/></linearGradient><path d="m0 0h120v120h-120z" fill="none"/><path d="m24.645 24.645h70.711v70.711h-70.711z" fill="#1ab3e2" transform="matrix(-.70710678 .70710678 -.70710678 -.70710678 144.853 60)"/><path d="m10 60 50 50 50-50z" fill="url(#a)" opacity=".4"/><path d="m35.258 35.258h49.485v49.485h-49.485z" fill="url(#b)" transform="matrix(-.70710678 .70710678 -.70710678 -.70710678 144.853 60)"/><path d="m43.594 78.535 10.176-10.556c1.977-2.058 3.543-3.819 4.653-5.232a28.356 28.356 0 0 0 2.427-3.506 8.166 8.166 0 0 0 .887-2.041 6.31 6.31 0 0 0 .17-1.272 2.607 2.607 0 0 0 -.143-.856 1.926 1.926 0 0 0 -.377-.652 1.877 1.877 0 0 0 -.6-.448 1.911 1.911 0 0 0 -.828-.155 1.655 1.655 0 0 0 -1.4.535 2.423 2.423 0 0 0 -.547 1.658 8.361 8.361 0 0 0 .108 1.09l.251 1.754h-12.082v-1.533a14.753 14.753 0 0 1 .991-5.488 12.745 12.745 0 0 1 2.82-4.333 12.525 12.525 0 0 1 4.317-2.8 14.646 14.646 0 0 1 5.378-.967 15.144 15.144 0 0 1 5.314.917 13 13 0 0 1 4.3 2.607 12.1 12.1 0 0 1 2.863 4.009 12.3 12.3 0 0 1 1.028 5.034 11.846 11.846 0 0 1 -1.251 5.386 18.114 18.114 0 0 1 -3.778 4.829l-2.29 2.144h7.649v9.879z" fill="url(#c)"/><path d="m59.8 45.27a13.525 13.525 0 0 1 4.776.82 11.419 11.419 0 0 1 3.792 2.3 10.543 10.543 0 0 1 2.5 3.5 10.733 10.733 0 0 1 .9 4.407 10.278 10.278 0 0 1 -1.086 4.693 16.541 16.541 0 0 1 -3.467 4.41l-5.124 4.8h10v6.8h-24.88l7.666-7.952q3.033-3.158 4.755-5.35a29.625 29.625 0 0 0 2.562-3.71 9.8 9.8 0 0 0 1.045-2.459 7.789 7.789 0 0 0 .205-1.6 4.174 4.174 0 0 0 -.225-1.353 3.484 3.484 0 0 0 -.677-1.168 3.277 3.277 0 0 0 -2.582-1.128 3.208 3.208 0 0 0 -2.56 1.065 3.929 3.929 0 0 0 -.923 2.665 10.03 10.03 0 0 0 .123 1.311h-8.774a13.176 13.176 0 0 1 .881-4.918 11.163 11.163 0 0 1 2.48-3.813 10.968 10.968 0 0 1 3.792-2.459 13.071 13.071 0 0 1 4.821-.861m0-3.074a16.192 16.192 0 0 0 -5.94 1.073 14.063 14.063 0 0 0 -4.841 3.147 14.245 14.245 0 0 0 -3.163 4.85 16.3 16.3 0 0 0 -1.1 6.055v3.079h13.515q-.47.654-1.058 1.4c-1.079 1.374-2.611 3.1-4.553 5.117l-7.66 7.947-5.021 5.208h35.19v-12.953h-5.316a18.91 18.91 0 0 0 3.57-4.743 13.37 13.37 0 0 0 1.417-6.076 13.835 13.835 0 0 0 -1.167-5.654 13.648 13.648 0 0 0 -3.225-4.517 14.539 14.539 0 0 0 -4.8-2.916 16.663 16.663 0 0 0 -5.848-1.013zm-.09 13.181a1.112 1.112 0 0 1 .255-.023.825.825 0 0 1 .194.016.376.376 0 0 1 .083.071.39.39 0 0 1 .075.136 1.072 1.072 0 0 1 .057.351 4.754 4.754 0 0 1 -.135.946 5.04 5.04 0 0 1 -.441 1.078l-.151-1.063a7.183 7.183 0 0 1 -.092-.879.941.941 0 0 1 .155-.633z" fill="#fff"/></svg>