<svg viewBox="0 0 120 120" xmlns="http://www.w3.org/2000/svg" xmlns:xlink="http://www.w3.org/1999/xlink"><linearGradient id="a" gradientUnits="userSpaceOnUse" x1="60" x2="60" y1="60" y2="103.84"><stop offset="0" stop-color="#fff" stop-opacity=".2"/><stop offset="1" stop-color="#fff"/></linearGradient><linearGradient id="b" gradientUnits="userSpaceOnUse" x1="110" x2="10" y1="85" y2="85"><stop offset="0" stop-color="#f5f5f5"/><stop offset=".234" stop-color="#f0f3f2"/><stop offset=".441" stop-color="#c2c3c5"/><stop offset=".786" stop-color="#f9f9f9"/><stop offset=".998" stop-color="#dadbdc"/></linearGradient><linearGradient id="c" x1="10" x2="110" xlink:href="#b" y1="35" y2="35"/><linearGradient id="d" gradientTransform="matrix(-.70710678 -.70710678 .70710678 -.70710678 60 144.853)" x1="60" x2="60" xlink:href="#a" y1="25.009" y2="94.991"/><linearGradient id="e" gradientUnits="userSpaceOnUse" x1="58.612" x2="58.612" y1="78.535" y2="43.733"><stop offset="0" stop-color="#2a385f"/><stop offset="1" stop-color="#15202b"/></linearGradient><linearGradient id="f" x1="59.864" x2="59.864" xlink:href="#b" y1="118.473" y2="62.348"/><path d="m0 0h120v120h-120z" fill="none"/><path d="m29 29h61.999v61.999h-61.999z" fill="#1ab3e2" transform="matrix(-.70710678 .70710678 -.70710678 -.70710678 144.853 60)"/><path d="m16.16 60 43.84 43.84 43.84-43.84z" fill="url(#a)" opacity=".4"/><path d="m103.84 60-43.84 43.84-43.84-43.84h-6.16l50 50 50-50z" fill="url(#b)"/><path d="m60 10-50 50h6.16l43.84-43.84 43.84 43.84h6.16z" fill="url(#c)"/><path d="m35.258 35.258h49.485v49.485h-49.485z" fill="url(#d)" transform="matrix(-.70710678 .70710678 -.70710678 -.70710678 144.853 60)"/><path d="m43.6 78.535 10.17-10.556c1.974-2.055 3.541-3.815 4.653-5.232a28.36 28.36 0 0 0 2.427-3.506 8.184 8.184 0 0 0 .887-2.041 6.3 6.3 0 0 0 .17-1.272 2.6 2.6 0 0 0 -.143-.855 1.912 1.912 0 0 0 -.378-.652 1.85 1.85 0 0 0 -.6-.449 1.911 1.911 0 0 0 -.828-.155 1.652 1.652 0 0 0 -1.4.536 2.423 2.423 0 0 0 -.546 1.657 8.4 8.4 0 0 0 .107 1.095l.249 1.754h-12.079v-1.537a14.773 14.773 0 0 1 .99-5.488 12.744 12.744 0 0 1 2.821-4.334 12.53 12.53 0 0 1 4.316-2.8 14.674 14.674 0 0 1 5.378-.967 15.136 15.136 0 0 1 5.314.917 13 13 0 0 1 4.3 2.607 12.11 12.11 0 0 1 2.863 4.01 12.293 12.293 0 0 1 1.029 5.033 11.846 11.846 0 0 1 -1.251 5.386 18.123 18.123 0 0 1 -3.778 4.83l-2.29 2.143h7.649v9.879z" fill="url(#e)"/><path d="m59.8 45.27a13.547 13.547 0 0 1 4.776.82 11.419 11.419 0 0 1 3.792 2.3 10.547 10.547 0 0 1 2.5 3.5 10.728 10.728 0 0 1 .9 4.406 10.275 10.275 0 0 1 -1.086 4.693 16.557 16.557 0 0 1 -3.467 4.411l-5.124 4.8h10v6.8h-24.88l7.666-7.952q3.033-3.158 4.755-5.348a29.625 29.625 0 0 0 2.562-3.71 9.8 9.8 0 0 0 1.045-2.459 7.789 7.789 0 0 0 .205-1.6 4.164 4.164 0 0 0 -.225-1.352 3.479 3.479 0 0 0 -.677-1.169 3.285 3.285 0 0 0 -2.582-1.13 3.209 3.209 0 0 0 -2.56 1.066 3.926 3.926 0 0 0 -.923 2.664 10.057 10.057 0 0 0 .123 1.312h-8.774a13.181 13.181 0 0 1 .881-4.919 11.163 11.163 0 0 1 2.48-3.813 10.968 10.968 0 0 1 3.792-2.459 13.071 13.071 0 0 1 4.821-.861m0-3.074a16.183 16.183 0 0 0 -5.939 1.073 14.058 14.058 0 0 0 -4.842 3.147 14.255 14.255 0 0 0 -3.163 4.85 16.3 16.3 0 0 0 -1.1 6.056v3.078h13.515q-.471.654-1.058 1.4c-1.08 1.376-2.612 3.1-4.553 5.117l-7.66 7.947-5.021 5.208h35.19v-12.953h-5.316a18.922 18.922 0 0 0 3.57-4.743 13.363 13.363 0 0 0 1.417-6.076 13.835 13.835 0 0 0 -1.167-5.654 13.634 13.634 0 0 0 -3.225-4.516 14.512 14.512 0 0 0 -4.8-2.916 16.65 16.65 0 0 0 -5.848-1.014zm-.09 13.182a1.035 1.035 0 0 1 .255-.024.825.825 0 0 1 .194.016.379.379 0 0 1 .158.208 1.066 1.066 0 0 1 .057.35 4.745 4.745 0 0 1 -.135.946 5.018 5.018 0 0 1 -.441 1.078l-.151-1.063a7.183 7.183 0 0 1 -.092-.879.935.935 0 0 1 .155-.632z" fill="#fff"/><path d="m26.225 62.348c-.63 6.261-5.239 4.544-3.068 12.805 5.443-3.159 4.213-7.653 3.068-12.805zm67.277 0c-1.145 5.154-2.379 9.646 3.068 12.805 2.171-8.261-2.438-6.544-3.07-12.805zm-80.381 2.007c1.077 10.125 4.738 13.4 9.6 13.5-.87-9.041-4.221-6.589-9.6-13.5zm93.485 0c-5.378 6.911-8.734 4.459-9.6 13.5 4.858-.104 8.523-3.375 9.6-13.5zm-77.106 6.192c1.125 6.9-4.318 6.376.388 14.618 4.937-4.957 2.323-9.416-.388-14.618zm60.726 0c-2.712 5.2-5.33 9.661-.393 14.618 4.705-8.242-.733-7.718.393-14.618zm-74.218 5.913c4.068 10.557 8.94 13.014 14.183 11.725-3.529-9.451-6.423-5.855-14.183-11.725zm87.706 0c-7.759 5.87-10.649 2.274-14.178 11.725 5.243 1.289 10.111-1.168 14.178-11.725zm-68.661 1.529c3.315 7.025-2.655 8.136 4.9 15.5 3.747-6.808-.411-10.775-4.9-15.5zm49.616 0c-4.489 4.726-8.65 8.692-4.895 15.5 7.55-7.364 1.58-8.475 4.895-15.5zm-41.969 5.936c5.8 6.388-.18 9.509 10.234 14.879 1.778-8.452-3.934-11.316-10.234-14.879zm34.329 0c-6.306 3.563-12.014 6.427-10.235 14.875 10.414-5.37 4.43-8.491 10.234-14.879zm-54.567 4.516c7.577 10.031 13.531 11.159 18.738 8.18-6.665-9.013-8.654-4.287-18.738-8.18zm74.8 0c-10.085 3.893-12.068-.833-18.732 8.18 5.205 2.979 11.154 1.85 18.732-8.18zm-50.908 9.411c-3.435-.013-6.525 1.78-13.638 1.269 11.309 8.2 18 7.463 22.566 2.6-4.066-3.011-6.577-3.863-8.928-3.872zm27.016 0c-2.35.009-4.858.861-8.923 3.872 4.562 4.86 11.257 5.593 22.566-2.6-7.113.511-10.208-1.282-13.643-1.269zm-16.721 4.341c.809.745 1.621 1.44 2.428 2.1-6.524 3.191-15.507 7.452-17.576 7.115l1.713 7.068c-.028-4.433 8.019-6.609 16.786-13.444 8.768 6.837 16.815 9.011 16.786 13.444l1.714-7.068c-2.069.337-11.052-3.923-17.577-7.115.808-.657 1.619-1.352 2.429-2.1-.938.459-2.106 1.036-3.352 1.647-1.245-.611-2.415-1.189-3.352-1.647z" fill="url(#f)"/></svg>