<svg viewBox="0 0 120 120" xmlns="http://www.w3.org/2000/svg" xmlns:xlink="http://www.w3.org/1999/xlink"><linearGradient id="a" gradientUnits="userSpaceOnUse" x1="60" x2="60" y1="60" y2="103.84"><stop offset="0" stop-color="#fff" stop-opacity=".2"/><stop offset="1" stop-color="#fff"/></linearGradient><linearGradient id="b" gradientUnits="userSpaceOnUse" x1="110" x2="10" y1="85" y2="85"><stop offset="0" stop-color="#f0e755"/><stop offset=".223" stop-color="#fffb80"/><stop offset=".44" stop-color="#d17600"/><stop offset=".692" stop-color="#ffe681"/><stop offset=".993" stop-color="#d5a244"/></linearGradient><linearGradient id="c" x1="10" x2="110" xlink:href="#b" y1="35" y2="35"/><linearGradient id="d" gradientTransform="matrix(-.70710678 -.70710678 .70710678 -.70710678 60 144.853)" x1="60" x2="60" xlink:href="#a" y1="25.009" y2="94.991"/><linearGradient id="e" gradientUnits="userSpaceOnUse" x1="59.672" x2="59.672" y1="79.396" y2="43.692"><stop offset="0" stop-color="#2a385f"/><stop offset="1" stop-color="#15202b"/></linearGradient><linearGradient id="f" x1="59.862" x2="59.862" xlink:href="#b" y1="118.473" y2="18.128"/><path d="m0 0h120v120h-120z" fill="none"/><path d="m29 29h61.999v61.999h-61.999z" fill="#16d671" transform="matrix(-.70710678 .70710678 -.70710678 -.70710678 144.853 60)"/><path d="m16.16 60 43.84 43.84 43.84-43.84z" fill="url(#a)" opacity=".4"/><path d="m103.84 60-43.84 43.84-43.84-43.84h-6.16l50 50 50-50z" fill="url(#b)"/><path d="m60 10-50 50h6.16l43.84-43.84 43.84 43.84h6.16z" fill="url(#c)"/><path d="m35.258 35.258h49.485v49.485h-49.485z" fill="url(#d)" transform="matrix(-.70710678 .70710678 -.70710678 -.70710678 144.853 60)"/><path d="m59.754 79.4a16.135 16.135 0 0 1 -7.107-1.548 12.074 12.074 0 0 1 -5.256-5.052 10.39 10.39 0 0 1 -1.217-3.169 15.734 15.734 0 0 1 -.3-3.042v-1.54h10.975l.055 1.479a3.123 3.123 0 0 0 .792 2.243 2.966 2.966 0 0 0 2.14.706 2.5 2.5 0 0 0 1.948-.611 2.683 2.683 0 0 0 .614-1.829 2.187 2.187 0 0 0 -.655-1.87 2.646 2.646 0 0 0 -1.825-.651 3.161 3.161 0 0 0 -.526.041c-.239.04-2.609.466-2.609.466v-8.131h-9.7l.2-1.718a14.882 14.882 0 0 1 1.355-4.8 11.878 11.878 0 0 1 2.71-3.645 11.389 11.389 0 0 1 3.881-2.274 15.365 15.365 0 0 1 9.427-.046 10.928 10.928 0 0 1 3.716 2.1 9.422 9.422 0 0 1 2.447 3.374 10.834 10.834 0 0 1 .844 4.32 8.55 8.55 0 0 1 -1.056 4.412 8.345 8.345 0 0 1 -.937 1.285 8.166 8.166 0 0 1 2.187 2.14 9.53 9.53 0 0 1 1.609 5.574 10.944 10.944 0 0 1 -3.975 8.6 13.217 13.217 0 0 1 -4.356 2.371 17.153 17.153 0 0 1 -5.381.815zm-1.24-22.779a2.979 2.979 0 0 0 .359.029h.389a1.849 1.849 0 0 0 1.4-.476 1.534 1.534 0 0 0 .469-1.226 1.454 1.454 0 0 0 -.42-1.155 1.568 1.568 0 0 0 -1.2-.423 1.524 1.524 0 0 0 -1.245.485 2.042 2.042 0 0 0 -.5 1.5v1.167z" fill="url(#e)"/><path d="m60 45.23a12.865 12.865 0 0 1 4.161.635 9.369 9.369 0 0 1 3.2 1.8 7.868 7.868 0 0 1 2.05 2.829 9.261 9.261 0 0 1 .717 3.71 7.02 7.02 0 0 1 -.84 3.627 7.535 7.535 0 0 1 -2.4 2.439 6.864 6.864 0 0 1 3.71 2.644 8 8 0 0 1 1.332 4.694 9.415 9.415 0 0 1 -3.423 7.42 11.645 11.645 0 0 1 -3.853 2.09 15.542 15.542 0 0 1 -4.9.738 14.549 14.549 0 0 1 -6.435-1.394 10.519 10.519 0 0 1 -4.591-4.427 8.846 8.846 0 0 1 -1.046-2.706 14.131 14.131 0 0 1 -.266-2.746h7.952a4.587 4.587 0 0 0 1.271 3.3 4.452 4.452 0 0 0 3.2 1.127 3.89 3.89 0 0 0 3.116-1.147 4.2 4.2 0 0 0 .983-2.83 3.789 3.789 0 0 0 -1.191-3.033 4.2 4.2 0 0 0 -2.829-1.025 4.738 4.738 0 0 0 -.779.062c-.245.041-.519.089-.819.143v-5.038a4.428 4.428 0 0 0 .553.041h.389a3.414 3.414 0 0 0 2.46-.9 3.09 3.09 0 0 0 .943-2.337 3.012 3.012 0 0 0 -.882-2.255 3.122 3.122 0 0 0 -2.274-.86 3.075 3.075 0 0 0 -2.378.983 3.615 3.615 0 0 0 -.9 2.542h-7.421a13.264 13.264 0 0 1 1.209-4.3 10.29 10.29 0 0 1 2.357-3.176 9.8 9.8 0 0 1 3.361-1.968 12.8 12.8 0 0 1 4.263-.682m0-3.075a15.887 15.887 0 0 0 -5.282.851 12.914 12.914 0 0 0 -4.4 2.583 13.4 13.4 0 0 0 -3.062 4.11 16.387 16.387 0 0 0 -1.5 5.294l-.407 3.436h9.895v5.083h-10.9v3.074a17.337 17.337 0 0 0 .325 3.342 11.973 11.973 0 0 0 1.4 3.644 13.572 13.572 0 0 0 5.913 5.659 17.663 17.663 0 0 0 7.778 1.7 18.7 18.7 0 0 0 5.862-.892 14.751 14.751 0 0 0 4.861-2.651 12.491 12.491 0 0 0 4.517-9.777 11.033 11.033 0 0 0 -1.887-6.454 9.813 9.813 0 0 0 -1.323-1.534c.046-.072.09-.145.134-.218a10.061 10.061 0 0 0 1.272-5.2 12.365 12.365 0 0 0 -.97-4.929 10.934 10.934 0 0 0 -2.845-3.921 12.474 12.474 0 0 0 -4.233-2.4 15.963 15.963 0 0 0 -5.152-.8zm-.619 12.756a.863.863 0 0 1 .128-.008q.046 0 .081 0v.038a.769.769 0 0 1 -.008.12.7.7 0 0 1 -.264.043.526.526 0 0 1 .062-.2zm-.947 11.376.43-.078c.286-.051.547-.1.781-.136a1.61 1.61 0 0 1 .273-.02 1.122 1.122 0 0 1 .822.28 1.325 1.325 0 0 1 .121.7 1.16 1.16 0 0 1 -.215.8 2.239 2.239 0 0 1 -.81.108 1.58 1.58 0 0 1 -1.08-.283 1.923 1.923 0 0 1 -.315-1.186l-.007-.183z" fill="#fff"/><path d="m40.716 18.128c-.168.131-.333.263-.493.4.177-.135.346-.264.493-.4zm38.3 0c.147.136.318.265.492.4-.162-.137-.327-.269-.495-.4zm-38.816.421c-3.659 2.755-12.8 4.819-10.836 9.108 4.915.614 5.907-4.939 10.836-9.108zm39.334 0c4.924 4.169 5.92 9.723 10.841 9.108 1.958-4.289-7.182-6.353-10.841-9.108zm-51.193 4.507c-4.6 3.87-4.992 6.744-3.437 9.156 4.138-3.409 1.829-4.241 3.437-9.156zm63.042 0c1.607 4.914-.7 5.747 3.442 9.155 1.555-2.411 1.159-5.285-3.442-9.155zm-67.838 5.26c-4.377 5.047-4.308 8.27-2.182 10.646 3.949-4.462 1.272-4.974 2.182-10.646zm72.633 0c.909 5.672-1.767 6.186 2.182 10.646 2.125-2.376 2.194-5.599-2.182-10.646zm-62.531.5c-2.249 1.209-3.274.246-4.776.762a6.209 6.209 0 0 0 -2.5 1.96c3.346 1.623 5.132-.46 7.276-2.723zm52.434 0c2.145 2.262 3.931 4.345 7.276 2.722a6.221 6.221 0 0 0 -2.5-1.96c-1.5-.516-2.522.447-4.772-.762zm-55.713 4.891c-2.054 1.563-3.3.984-4.687 1.487-.829.3-1.7.992-2.826 2.769 3.953 1.2 5.552-1.4 7.513-4.256zm58.99 0c1.96 2.856 3.559 5.456 7.513 4.256-1.123-1.777-2-2.467-2.827-2.769-1.381-.5-2.633.076-4.686-1.487zm-70.258 1.316c-3.815 6.368-3.12 9.882-.336 12.072 3.458-5.642.436-5.689.336-12.072zm81.537 0c-.1 6.383-3.125 6.43.336 12.072 2.782-2.19 3.477-5.704-.339-12.072zm-73.037 4.577c-3.113 3.369-5.039.349-7.4 6.112 4.558.55 5.805-2.609 7.4-6.112zm64.528 0c1.594 3.5 2.842 6.662 7.4 6.112-2.361-5.763-4.286-2.743-7.4-6.112zm-76.607 3.622c-2.812 7.753-1.305 11.432 2.2 13.231 2.579-6.887-.735-6.291-2.2-13.231zm88.685 0c-1.461 6.94-4.775 6.343-2.2 13.231 3.5-1.8 5.008-5.478 2.2-13.231zm-78.431 3.19c-2.681 4.335-5.426 1.447-6.779 8.233 5.087-.366 5.782-4.074 6.779-8.233zm68.177 0c1 4.159 1.692 7.867 6.779 8.233-1.353-6.786-4.098-3.898-6.779-8.233zm-80.684 6.331c-1.268 9.076 1.224 12.729 5.444 13.875 1.212-8.081-2.252-6.669-5.444-13.875zm93.188 0c-3.192 7.2-6.651 5.794-5.439 13.875 4.22-1.146 6.703-4.799 5.439-13.875zm-81.305 1.1c-1.913 5.33-5.565 2.822-5.468 10.509 5.444-1.57 5.346-5.752 5.468-10.506zm69.427 0c.122 4.75.023 8.936 5.468 10.509.096-7.684-3.555-5.176-5.468-10.506zm-68.353 8.5c-.63 6.261-5.239 4.544-3.068 12.805 5.443-3.154 4.213-7.648 3.068-12.8zm67.277 0c-1.145 5.154-2.379 9.646 3.068 12.805 2.171-8.256-2.438-6.539-3.07-12.8zm-80.381 2.012c1.077 10.125 4.738 13.4 9.6 13.5-.87-9.041-4.221-6.589-9.6-13.5zm93.485 0c-5.378 6.911-8.734 4.459-9.6 13.5 4.858-.104 8.523-3.375 9.6-13.5zm-77.106 6.192c1.125 6.9-4.318 6.376.388 14.618 4.937-4.957 2.323-9.416-.388-14.618zm60.726 0c-2.712 5.2-5.33 9.661-.393 14.618 4.705-8.242-.733-7.718.393-14.618zm-74.218 5.913c4.068 10.557 8.94 13.014 14.183 11.725-3.529-9.451-6.423-5.855-14.183-11.725zm87.706 0c-7.759 5.87-10.649 2.274-14.178 11.725 5.243 1.289 10.111-1.168 14.178-11.725zm-68.661 1.529c3.315 7.025-2.655 8.136 4.9 15.5 3.747-6.808-.411-10.775-4.9-15.5zm49.616 0c-4.489 4.726-8.65 8.692-4.895 15.5 7.55-7.364 1.58-8.475 4.895-15.5zm-41.969 5.936c5.8 6.388-.18 9.509 10.234 14.879 1.778-8.452-3.934-11.316-10.234-14.879zm34.329 0c-6.306 3.563-12.014 6.427-10.235 14.875 10.414-5.37 4.43-8.491 10.234-14.879zm-54.567 4.516c7.577 10.031 13.531 11.159 18.738 8.18-6.665-9.013-8.654-4.287-18.738-8.18zm74.8 0c-10.085 3.893-12.068-.833-18.732 8.18 5.205 2.979 11.154 1.85 18.732-8.18zm-50.908 9.411c-3.435-.013-6.525 1.78-13.638 1.269 11.309 8.2 18 7.463 22.566 2.6-4.066-3.011-6.577-3.863-8.928-3.872zm27.016 0c-2.35.009-4.858.861-8.923 3.872 4.562 4.86 11.257 5.593 22.566-2.6-7.113.511-10.208-1.282-13.643-1.269zm-16.721 4.341c.809.745 1.621 1.44 2.428 2.1-6.524 3.191-15.507 7.452-17.576 7.115l1.713 7.068c-.028-4.433 8.019-6.609 16.786-13.444 8.768 6.837 16.815 9.011 16.786 13.444l1.714-7.068c-2.069.337-11.052-3.923-17.577-7.115.808-.657 1.619-1.352 2.429-2.1-.938.459-2.106 1.036-3.352 1.647-1.245-.611-2.415-1.189-3.352-1.647z" fill="url(#f)"/></svg>