<svg viewBox="0 0 120 120" xmlns="http://www.w3.org/2000/svg" xmlns:xlink="http://www.w3.org/1999/xlink"><linearGradient id="a" gradientUnits="userSpaceOnUse" x1="60" x2="60" y1="60" y2="110"><stop offset="0" stop-color="#fff" stop-opacity=".2"/><stop offset="1" stop-color="#fff"/></linearGradient><linearGradient id="b" gradientTransform="matrix(-.70710678 -.70710678 .70710678 -.70710678 60 144.853)" x1="60" x2="60" xlink:href="#a" y1="25.009" y2="94.991"/><linearGradient id="c" gradientUnits="userSpaceOnUse" x1="59.685" x2="59.685" y1="79.396" y2="44.553"><stop offset="0" stop-color="#2a385f"/><stop offset="1" stop-color="#15202b"/></linearGradient><path d="m24.645 24.645h70.711v70.711h-70.711z" fill="#99d111" transform="matrix(-.70710678 .70710678 -.70710678 -.70710678 144.853 60)"/><path d="m10 60 50 50 50-50z" fill="url(#a)" opacity=".4"/><path d="m35.258 35.258h49.485v49.485h-49.485z" fill="url(#b)" transform="matrix(-.70710678 .70710678 -.70710678 -.70710678 144.853 60)"/><path d="m58.278 79.4a22.037 22.037 0 0 1 -5.706-.729 18.842 18.842 0 0 1 -5.155-2.254l-.857-.539 1.775-11.269.049.042 3.127-20.094h19.045v9.879h-10.921l-.023.144c.262-.014.529-.021.8-.021a12.978 12.978 0 0 1 4.926.933 11.616 11.616 0 0 1 6.54 6.54 13.1 13.1 0 0 1 .933 4.968 12.252 12.252 0 0 1 -1.063 5.15 11.278 11.278 0 0 1 -3.011 3.95 13.31 13.31 0 0 1 -4.629 2.463 19.5 19.5 0 0 1 -5.83.837zm-7.851-13a15.039 15.039 0 0 0 3.789 2.439 8.735 8.735 0 0 0 3.448.8 4 4 0 0 0 2.848-.922 2.785 2.785 0 0 0 .944-2.174 2.874 2.874 0 0 0 -1.3-2.469 6.871 6.871 0 0 0 -4.133-1.117 12.576 12.576 0 0 0 -2.556.275 12.254 12.254 0 0 0 -2.586.857l-2.055.938z" fill="url(#c)"/><path d="m69.019 46.09v6.81h-10.7l-.532 3.4c.491-.054.943-.1 1.352-.143s.834-.062 1.271-.062a11.377 11.377 0 0 1 4.345.82 10.067 10.067 0 0 1 5.7 5.7 11.507 11.507 0 0 1 .818 4.385 10.7 10.7 0 0 1 -.922 4.509 9.727 9.727 0 0 1 -2.6 3.423 11.744 11.744 0 0 1 -4.1 2.172 17.887 17.887 0 0 1 -5.371.758 20.4 20.4 0 0 1 -5.308-.676 17.22 17.22 0 0 1 -4.734-2.07l1.189-7.543a16.472 16.472 0 0 0 4.181 2.685 10.217 10.217 0 0 0 4.058.923 5.5 5.5 0 0 0 3.894-1.332 4.32 4.32 0 0 0 1.435-3.3 4.393 4.393 0 0 0 -1.926-3.71 8.321 8.321 0 0 0 -5.042-1.414 14.06 14.06 0 0 0 -2.871.307 13.755 13.755 0 0 0 -2.91.964l2.583-16.6h16.19m3.074-3.075h-21.9l-.405 2.6-2.5 16.06-.044-.037-.859 5.451-1.185 7.539-.316 2 1.716 1.08a20.377 20.377 0 0 0 5.576 2.438 23.573 23.573 0 0 0 6.1.781 21.057 21.057 0 0 0 6.29-.9 14.834 14.834 0 0 0 5.159-2.754 12.815 12.815 0 0 0 3.418-4.493 13.779 13.779 0 0 0 1.205-5.786 14.61 14.61 0 0 0 -1.048-5.552 13.426 13.426 0 0 0 -2.925-4.454 13.1 13.1 0 0 0 -1.157-1.025h2.876v-12.954zm-20.439 22.408a10.632 10.632 0 0 1 2.127-.691 11.07 11.07 0 0 1 2.244-.243 5.408 5.408 0 0 1 3.222.819 1.343 1.343 0 0 1 .672 1.231 1.264 1.264 0 0 1 -.452 1.046 2.384 2.384 0 0 1 -1.8.511 7.232 7.232 0 0 1 -2.836-.669 13.274 13.274 0 0 1 -3.174-2z" fill="#fff"/><path d="m0 0h120v120h-120z" fill="none"/></svg>