<svg viewBox="0 0 120 120" xmlns="http://www.w3.org/2000/svg" xmlns:xlink="http://www.w3.org/1999/xlink"><linearGradient id="a" gradientUnits="userSpaceOnUse" x1="60" x2="60" y1="60" y2="103.84"><stop offset="0" stop-color="#fff" stop-opacity=".2"/><stop offset="1" stop-color="#fff"/></linearGradient><linearGradient id="b" gradientUnits="userSpaceOnUse" x1="110" x2="10" y1="85" y2="85"><stop offset="0" stop-color="#f0e755"/><stop offset=".223" stop-color="#fffb80"/><stop offset=".44" stop-color="#d17600"/><stop offset=".692" stop-color="#ffe681"/><stop offset=".993" stop-color="#d5a244"/></linearGradient><linearGradient id="c" x1="10" x2="110" xlink:href="#b" y1="35" y2="35"/><linearGradient id="d" gradientTransform="matrix(-.70710678 -.70710678 .70710678 -.70710678 60 144.853)" x1="60" x2="60" xlink:href="#a" y1="25.009" y2="94.991"/><linearGradient id="e" gradientUnits="userSpaceOnUse" x1="60.001" x2="60.001" y1="79.355" y2="43.692"><stop offset="0" stop-color="#2a385f"/><stop offset="1" stop-color="#15202b"/></linearGradient><linearGradient id="f" x1="59.862" x2="59.862" xlink:href="#b" y1="118.473" y2="18.128"/><path d="m0 0h120v120h-120z" fill="none"/><path d="m29 29h61.999v61.999h-61.999z" fill="#ff6700" transform="matrix(-.70710678 .70710678 -.70710678 -.70710678 144.853 60)"/><path d="m16.16 60 43.84 43.84 43.84-43.84z" fill="url(#a)" opacity=".4"/><path d="m103.84 60-43.84 43.84-43.84-43.84h-6.16l50 50 50-50z" fill="url(#b)"/><path d="m60 10-50 50h6.16l43.84-43.84 43.84 43.84h6.16z" fill="url(#c)"/><path d="m35.258 35.258h49.485v49.485h-49.485z" fill="url(#d)" transform="matrix(-.70710678 .70710678 -.70710678 -.70710678 144.853 60)"/><path d="m60 79.355a17 17 0 0 1 -5.114-.748 13.53 13.53 0 0 1 -4.227-2.154 10.612 10.612 0 0 1 -2.917-3.4 9.543 9.543 0 0 1 3.333-12.467 8.17 8.17 0 0 1 -3.147-6.706 9.477 9.477 0 0 1 .937-4.225 9.885 9.885 0 0 1 2.546-3.226 11.224 11.224 0 0 1 3.843-2.049 16.76 16.76 0 0 1 9.492 0 11.272 11.272 0 0 1 3.844 2.048 9.916 9.916 0 0 1 2.545 3.226 9.475 9.475 0 0 1 .937 4.226 10.406 10.406 0 0 1 -.294 2.574 6.574 6.574 0 0 1 -1.095 2.3 8.738 8.738 0 0 1 -1.89 1.825l-.035.025a9.15 9.15 0 0 1 4.586 8.035 9.3 9.3 0 0 1 -1.058 4.361 10.5 10.5 0 0 1 -2.876 3.41 13.6 13.6 0 0 1 -4.2 2.176 16.868 16.868 0 0 1 -5.21.769zm0-13.855a2.007 2.007 0 0 0 -1.525.626 2.06 2.06 0 0 0 -.626 1.527 2.349 2.349 0 0 0 .636 1.619 2.191 2.191 0 0 0 .7.487 1.936 1.936 0 0 0 .817.169 1.827 1.827 0 0 0 .776-.169 2.48 2.48 0 0 0 .742-.509 2.189 2.189 0 0 0 .469-.7 2.136 2.136 0 0 0 .166-.854 2.074 2.074 0 0 0 -.637-1.558 2.031 2.031 0 0 0 -1.518-.638zm0-13.362a1.745 1.745 0 0 0 -1.331.533 1.7 1.7 0 0 0 -.534 1.29 1.832 1.832 0 0 0 .545 1.363 1.715 1.715 0 0 0 1.32.544 1.622 1.622 0 0 0 .7-.142 1.989 1.989 0 0 0 .607-.428 2.176 2.176 0 0 0 .42-.638 1.655 1.655 0 0 0 .138-.66 1.764 1.764 0 0 0 -.545-1.322 1.713 1.713 0 0 0 -1.32-.541z" fill="url(#e)"/><path d="m60 45.23a14.192 14.192 0 0 1 4.283.614 9.662 9.662 0 0 1 3.317 1.762 8.337 8.337 0 0 1 2.153 2.727 7.919 7.919 0 0 1 .778 3.545 8.9 8.9 0 0 1 -.246 2.194 4.988 4.988 0 0 1 -.841 1.762 7.085 7.085 0 0 1 -1.557 1.5 14.1 14.1 0 0 1 -2.4 1.354q6.314 2.459 6.313 7.952a7.733 7.733 0 0 1 -.881 3.647 8.952 8.952 0 0 1 -2.46 2.912 12.04 12.04 0 0 1 -3.73 1.926 16.377 16.377 0 0 1 -9.387.02 11.945 11.945 0 0 1 -3.742-1.91 9.038 9.038 0 0 1 -2.5-2.91 7.668 7.668 0 0 1 -.9-3.689q0-5.616 6.108-7.952-4.839-2.01-4.838-6.806a7.893 7.893 0 0 1 .78-3.545 8.318 8.318 0 0 1 2.15-2.727 9.662 9.662 0 0 1 3.321-1.762 14.192 14.192 0 0 1 4.279-.614m0 12.17a3.147 3.147 0 0 0 1.353-.287 3.506 3.506 0 0 0 1.066-.759 3.674 3.674 0 0 0 .718-1.086 3.174 3.174 0 0 0 .263-1.268 3.31 3.31 0 0 0 -.984-2.4 3.393 3.393 0 0 0 -5.816 2.36 3.352 3.352 0 0 0 .984 2.439 3.247 3.247 0 0 0 2.416 1.001m0 14.06a3.371 3.371 0 0 0 1.414-.307 4.02 4.02 0 0 0 1.189-.82 3.746 3.746 0 0 0 .8-1.189 3.692 3.692 0 0 0 .287-1.455 3.6 3.6 0 0 0 -1.09-2.64 3.679 3.679 0 0 0 -6.292 2.6 3.9 3.9 0 0 0 1.066 2.685 3.764 3.764 0 0 0 1.168.82 3.474 3.474 0 0 0 1.458.31m0-29.309a17.309 17.309 0 0 0 -5.208.757 12.748 12.748 0 0 0 -4.366 2.335 11.4 11.4 0 0 0 -2.939 3.726 10.991 10.991 0 0 0 -1.1 4.905 9.821 9.821 0 0 0 2.32 6.553 10.569 10.569 0 0 0 -3.59 8.2 10.746 10.746 0 0 0 1.267 5.143 12.129 12.129 0 0 0 3.335 3.893 15.066 15.066 0 0 0 4.7 2.4 19.446 19.446 0 0 0 11.254-.028 15.132 15.132 0 0 0 4.673-2.426 12.044 12.044 0 0 0 3.293-3.907 10.816 10.816 0 0 0 1.234-5.077 10.428 10.428 0 0 0 -3.659-8.129 8.986 8.986 0 0 0 .7-.83 8.1 8.1 0 0 0 1.353-2.837 11.981 11.981 0 0 0 .342-2.955 11.009 11.009 0 0 0 -1.095-4.9 11.424 11.424 0 0 0 -2.939-3.726 12.741 12.741 0 0 0 -4.366-2.335 17.31 17.31 0 0 0 -5.209-.762zm0 12.175c-.142 0-.152-.011-.219-.08a.308.308 0 0 1 -.109-.29.2.2 0 0 1 .083-.2c.065-.066.084-.085.245-.085.144 0 .156.013.224.082a.261.261 0 0 1 .1.245.119.119 0 0 1 -.014.053.584.584 0 0 1 -.115.177.428.428 0 0 1 -.141.1c-.007 0-.027 0-.056 0zm0 14.059a.41.41 0 0 1 -.183-.031.671.671 0 0 1 -.218-.146.742.742 0 0 1 -.158-.253.782.782 0 0 1 -.055-.307.528.528 0 0 1 .185-.449.481.481 0 0 1 .429-.167.507.507 0 0 1 .431.188.55.55 0 0 1 .185.469.617.617 0 0 1 -.044.256.659.659 0 0 1 -.143.214.95.95 0 0 1 -.287.2.312.312 0 0 1 -.142.031z" fill="#fff"/><path d="m40.716 18.128c-.168.131-.333.263-.493.4.177-.135.346-.264.493-.4zm38.3 0c.147.136.318.265.492.4-.162-.137-.327-.269-.495-.4zm-38.816.421c-3.659 2.755-12.8 4.819-10.836 9.108 4.915.614 5.907-4.939 10.836-9.108zm39.334 0c4.924 4.169 5.92 9.723 10.841 9.108 1.958-4.289-7.182-6.353-10.841-9.108zm-51.193 4.507c-4.6 3.87-4.992 6.744-3.437 9.156 4.138-3.409 1.829-4.241 3.437-9.156zm63.042 0c1.607 4.914-.7 5.747 3.442 9.155 1.555-2.411 1.159-5.285-3.442-9.155zm-67.838 5.26c-4.377 5.047-4.308 8.27-2.182 10.646 3.949-4.462 1.272-4.974 2.182-10.646zm72.633 0c.909 5.672-1.767 6.186 2.182 10.646 2.125-2.376 2.194-5.599-2.182-10.646zm-62.531.5c-2.249 1.209-3.274.246-4.776.762a6.209 6.209 0 0 0 -2.5 1.96c3.346 1.623 5.132-.46 7.276-2.723zm52.434 0c2.145 2.262 3.931 4.345 7.276 2.722a6.221 6.221 0 0 0 -2.5-1.96c-1.5-.516-2.522.447-4.772-.762zm-55.713 4.891c-2.054 1.563-3.3.984-4.687 1.487-.829.3-1.7.992-2.826 2.769 3.953 1.2 5.552-1.4 7.513-4.256zm58.99 0c1.96 2.856 3.559 5.456 7.513 4.256-1.123-1.777-2-2.467-2.827-2.769-1.381-.5-2.633.076-4.686-1.487zm-70.258 1.316c-3.815 6.368-3.12 9.882-.336 12.072 3.458-5.642.436-5.689.336-12.072zm81.537 0c-.1 6.383-3.125 6.43.336 12.072 2.782-2.19 3.477-5.704-.339-12.072zm-73.037 4.577c-3.113 3.369-5.039.349-7.4 6.112 4.558.55 5.805-2.609 7.4-6.112zm64.528 0c1.594 3.5 2.842 6.662 7.4 6.112-2.361-5.763-4.286-2.743-7.4-6.112zm-76.607 3.622c-2.812 7.753-1.305 11.432 2.2 13.231 2.579-6.887-.735-6.291-2.2-13.231zm88.685 0c-1.461 6.94-4.775 6.343-2.2 13.231 3.5-1.8 5.008-5.478 2.2-13.231zm-78.431 3.19c-2.681 4.335-5.426 1.447-6.779 8.233 5.087-.366 5.782-4.074 6.779-8.233zm68.177 0c1 4.159 1.692 7.867 6.779 8.233-1.353-6.786-4.098-3.898-6.779-8.233zm-80.684 6.331c-1.268 9.076 1.224 12.729 5.444 13.875 1.212-8.081-2.252-6.669-5.444-13.875zm93.188 0c-3.192 7.2-6.651 5.794-5.439 13.875 4.22-1.146 6.703-4.799 5.439-13.875zm-81.305 1.1c-1.913 5.33-5.565 2.822-5.468 10.509 5.444-1.57 5.346-5.752 5.468-10.506zm69.427 0c.122 4.75.023 8.936 5.468 10.509.096-7.684-3.555-5.176-5.468-10.506zm-68.353 8.5c-.63 6.261-5.239 4.544-3.068 12.805 5.443-3.154 4.213-7.648 3.068-12.8zm67.277 0c-1.145 5.154-2.379 9.646 3.068 12.805 2.171-8.256-2.438-6.539-3.07-12.8zm-80.381 2.012c1.077 10.125 4.738 13.4 9.6 13.5-.87-9.041-4.221-6.589-9.6-13.5zm93.485 0c-5.378 6.911-8.734 4.459-9.6 13.5 4.858-.104 8.523-3.375 9.6-13.5zm-77.106 6.192c1.125 6.9-4.318 6.376.388 14.618 4.937-4.957 2.323-9.416-.388-14.618zm60.726 0c-2.712 5.2-5.33 9.661-.393 14.618 4.705-8.242-.733-7.718.393-14.618zm-74.218 5.913c4.068 10.557 8.94 13.014 14.183 11.725-3.529-9.451-6.423-5.855-14.183-11.725zm87.706 0c-7.759 5.87-10.649 2.274-14.178 11.725 5.243 1.289 10.111-1.168 14.178-11.725zm-68.661 1.529c3.315 7.025-2.655 8.136 4.9 15.5 3.747-6.808-.411-10.775-4.9-15.5zm49.616 0c-4.489 4.726-8.65 8.692-4.895 15.5 7.55-7.364 1.58-8.475 4.895-15.5zm-41.969 5.936c5.8 6.388-.18 9.509 10.234 14.879 1.778-8.452-3.934-11.316-10.234-14.879zm34.329 0c-6.306 3.563-12.014 6.427-10.235 14.875 10.414-5.37 4.43-8.491 10.234-14.879zm-54.567 4.516c7.577 10.031 13.531 11.159 18.738 8.18-6.665-9.013-8.654-4.287-18.738-8.18zm74.8 0c-10.085 3.893-12.068-.833-18.732 8.18 5.205 2.979 11.154 1.85 18.732-8.18zm-50.908 9.411c-3.435-.013-6.525 1.78-13.638 1.269 11.309 8.2 18 7.463 22.566 2.6-4.066-3.011-6.577-3.863-8.928-3.872zm27.016 0c-2.35.009-4.858.861-8.923 3.872 4.562 4.86 11.257 5.593 22.566-2.6-7.113.511-10.208-1.282-13.643-1.269zm-16.721 4.341c.809.745 1.621 1.44 2.428 2.1-6.524 3.191-15.507 7.452-17.576 7.115l1.713 7.068c-.028-4.433 8.019-6.609 16.786-13.444 8.768 6.837 16.815 9.011 16.786 13.444l1.714-7.068c-2.069.337-11.052-3.923-17.577-7.115.808-.657 1.619-1.352 2.429-2.1-.938.459-2.106 1.036-3.352 1.647-1.245-.611-2.415-1.189-3.352-1.647z" fill="url(#f)"/></svg>