<svg viewBox="0 0 120 120" xmlns="http://www.w3.org/2000/svg" xmlns:xlink="http://www.w3.org/1999/xlink"><linearGradient id="a" gradientUnits="userSpaceOnUse" x1="60" x2="60" y1="60" y2="103.84"><stop offset="0" stop-color="#fff" stop-opacity=".2"/><stop offset="1" stop-color="#fff"/></linearGradient><linearGradient id="b" gradientUnits="userSpaceOnUse" x1="110" x2="10" y1="85" y2="85"><stop offset="0" stop-color="#f0e755"/><stop offset=".223" stop-color="#fffb80"/><stop offset=".44" stop-color="#d17600"/><stop offset=".692" stop-color="#ffe681"/><stop offset=".993" stop-color="#d5a244"/></linearGradient><linearGradient id="c" x1="10" x2="110" xlink:href="#b" y1="35" y2="35"/><linearGradient id="d" gradientTransform="matrix(-.70710678 -.70710678 .70710678 -.70710678 60 144.853)" x1="60" x2="60" xlink:href="#a" y1="25.009" y2="94.991"/><linearGradient id="e" gradientUnits="userSpaceOnUse" x1="59.98" x2="59.98" y1="78.535" y2="43.692"><stop offset="0" stop-color="#2a385f"/><stop offset="1" stop-color="#15202b"/></linearGradient><linearGradient id="f" x1="59.862" x2="59.862" xlink:href="#b" y1="118.473" y2="18.128"/><path d="m0 0h120v120h-120z" fill="none"/><path d="m29 29h61.999v61.999h-61.999z" fill="#ef165e" transform="matrix(-.70710678 .70710678 -.70710678 -.70710678 144.853 60)"/><path d="m16.16 60 43.84 43.84 43.84-43.84z" fill="url(#a)" opacity=".4"/><path d="m103.84 60-43.84 43.84-43.84-43.84h-6.16l50 50 50-50z" fill="url(#b)"/><path d="m60 10-50 50h6.16l43.84-43.84 43.84 43.84h6.16z" fill="url(#c)"/><path d="m35.258 35.258h49.485v49.485h-49.485z" fill="url(#d)" transform="matrix(-.70710678 .70710678 -.70710678 -.70710678 144.853 60)"/><path d="m48.469 78.535 7.94-9.127a11.369 11.369 0 0 1 -3.948-.97 11.529 11.529 0 0 1 -3.779-2.719 12.555 12.555 0 0 1 -2.453-3.989 13.362 13.362 0 0 1 -.883-4.859 13.091 13.091 0 0 1 1.025-5.171 12.31 12.31 0 0 1 2.973-4.212 13.836 13.836 0 0 1 4.627-2.793 18.568 18.568 0 0 1 12.017 0 14.063 14.063 0 0 1 4.621 2.765 12.218 12.218 0 0 1 2.975 4.14 12.511 12.511 0 0 1 1.03 5.021 17.552 17.552 0 0 1 -1.269 6.227 23.52 23.52 0 0 1 -3.833 6.43l-7.639 9.253zm11.531-25.414a3.3 3.3 0 0 0 -1.366.277 3.759 3.759 0 0 0 -1.154.788 3.81 3.81 0 0 0 -.791 1.158 3.5 3.5 0 0 0 0 2.726 3.768 3.768 0 0 0 1.946 1.946 3.489 3.489 0 0 0 2.727 0 3.775 3.775 0 0 0 1.947-1.946 3.488 3.488 0 0 0 0-2.729 3.781 3.781 0 0 0 -1.945-1.941 3.3 3.3 0 0 0 -1.364-.279z" fill="url(#e)"/><path d="m59.96 45.23a15.67 15.67 0 0 1 5.492.9 12.506 12.506 0 0 1 4.12 2.459 10.656 10.656 0 0 1 2.6 3.628 10.921 10.921 0 0 1 .9 4.407 15.966 15.966 0 0 1 -1.163 5.676 21.872 21.872 0 0 1 -3.587 6l-7.173 8.7h-9.3l8.771-10.084h-.164a6.17 6.17 0 0 1 -1.885.84 6.944 6.944 0 0 1 -1.312.144 9.972 9.972 0 0 1 -7.44-3.218 11 11 0 0 1 -2.152-3.505 11.8 11.8 0 0 1 -.779-4.3 11.519 11.519 0 0 1 .9-4.571 10.734 10.734 0 0 1 2.6-3.689 12.275 12.275 0 0 1 4.12-2.48 15.543 15.543 0 0 1 5.452-.9m.04 16.594a4.841 4.841 0 0 0 1.987-.41 5.309 5.309 0 0 0 2.728-2.721 5.025 5.025 0 0 0 0-3.976 5.309 5.309 0 0 0 -2.727-2.726 5.025 5.025 0 0 0 -3.976 0 5.312 5.312 0 0 0 -2.726 2.726 5.036 5.036 0 0 0 0 3.976 5.312 5.312 0 0 0 2.726 2.726 4.843 4.843 0 0 0 1.989.41m-.041-19.681a18.671 18.671 0 0 0 -6.525 1.095 15.393 15.393 0 0 0 -5.135 3.108 13.8 13.8 0 0 0 -3.339 4.735 14.615 14.615 0 0 0 -1.15 5.778 14.911 14.911 0 0 0 .988 5.416 14.1 14.1 0 0 0 2.754 4.472 13.047 13.047 0 0 0 4.279 3.08 12.436 12.436 0 0 0 1.64.606l-3.948 4.535-4.43 5.093h17.506l.923-1.118 7.173-8.691a25.04 25.04 0 0 0 4.084-6.864 19.083 19.083 0 0 0 1.371-6.777 14.048 14.048 0 0 0 -1.151-5.631 13.782 13.782 0 0 0 -3.345-4.668 15.62 15.62 0 0 0 -5.123-3.073 18.792 18.792 0 0 0 -6.567-1.1zm.04 16.602a1.784 1.784 0 0 1 -.74-.145 2.233 2.233 0 0 1 -1.16-1.164 1.967 1.967 0 0 1 0-1.48 2.294 2.294 0 0 1 .474-.7 2.255 2.255 0 0 1 .692-.469 1.966 1.966 0 0 1 1.482 0 2.233 2.233 0 0 1 1.162 1.164 1.956 1.956 0 0 1 0 1.478 2.233 2.233 0 0 1 -1.164 1.165 1.775 1.775 0 0 1 -.74.146z" fill="#fff"/><path d="m40.716 18.128c-.168.131-.333.263-.493.4.177-.135.346-.264.493-.4zm38.3 0c.147.136.318.265.492.4-.162-.137-.327-.269-.495-.4zm-38.816.421c-3.659 2.755-12.8 4.819-10.836 9.108 4.915.614 5.907-4.939 10.836-9.108zm39.334 0c4.924 4.169 5.92 9.723 10.841 9.108 1.958-4.289-7.182-6.353-10.841-9.108zm-51.193 4.507c-4.6 3.87-4.992 6.744-3.437 9.156 4.138-3.409 1.829-4.241 3.437-9.156zm63.042 0c1.607 4.914-.7 5.747 3.442 9.155 1.555-2.411 1.159-5.285-3.442-9.155zm-67.838 5.26c-4.377 5.047-4.308 8.27-2.182 10.646 3.949-4.462 1.272-4.974 2.182-10.646zm72.633 0c.909 5.672-1.767 6.186 2.182 10.646 2.125-2.376 2.194-5.599-2.182-10.646zm-62.531.5c-2.249 1.209-3.274.246-4.776.762a6.209 6.209 0 0 0 -2.5 1.96c3.346 1.623 5.132-.46 7.276-2.723zm52.434 0c2.145 2.262 3.931 4.345 7.276 2.722a6.221 6.221 0 0 0 -2.5-1.96c-1.5-.516-2.522.447-4.772-.762zm-55.713 4.891c-2.054 1.563-3.3.984-4.687 1.487-.829.3-1.7.992-2.826 2.769 3.953 1.2 5.552-1.4 7.513-4.256zm58.99 0c1.96 2.856 3.559 5.456 7.513 4.256-1.123-1.777-2-2.467-2.827-2.769-1.381-.5-2.633.076-4.686-1.487zm-70.258 1.316c-3.815 6.368-3.12 9.882-.336 12.072 3.458-5.642.436-5.689.336-12.072zm81.537 0c-.1 6.383-3.125 6.43.336 12.072 2.782-2.19 3.477-5.704-.339-12.072zm-73.037 4.577c-3.113 3.369-5.039.349-7.4 6.112 4.558.55 5.805-2.609 7.4-6.112zm64.528 0c1.594 3.5 2.842 6.662 7.4 6.112-2.361-5.763-4.286-2.743-7.4-6.112zm-76.607 3.622c-2.812 7.753-1.305 11.432 2.2 13.231 2.579-6.887-.735-6.291-2.2-13.231zm88.685 0c-1.461 6.94-4.775 6.343-2.2 13.231 3.5-1.8 5.008-5.478 2.2-13.231zm-78.431 3.19c-2.681 4.335-5.426 1.447-6.779 8.233 5.087-.366 5.782-4.074 6.779-8.233zm68.177 0c1 4.159 1.692 7.867 6.779 8.233-1.353-6.786-4.098-3.898-6.779-8.233zm-80.684 6.331c-1.268 9.076 1.224 12.729 5.444 13.875 1.212-8.081-2.252-6.669-5.444-13.875zm93.188 0c-3.192 7.2-6.651 5.794-5.439 13.875 4.22-1.146 6.703-4.799 5.439-13.875zm-81.305 1.1c-1.913 5.33-5.565 2.822-5.468 10.509 5.444-1.57 5.346-5.752 5.468-10.506zm69.427 0c.122 4.75.023 8.936 5.468 10.509.096-7.684-3.555-5.176-5.468-10.506zm-68.353 8.5c-.63 6.261-5.239 4.544-3.068 12.805 5.443-3.154 4.213-7.648 3.068-12.8zm67.277 0c-1.145 5.154-2.379 9.646 3.068 12.805 2.171-8.256-2.438-6.539-3.07-12.8zm-80.381 2.012c1.077 10.125 4.738 13.4 9.6 13.5-.87-9.041-4.221-6.589-9.6-13.5zm93.485 0c-5.378 6.911-8.734 4.459-9.6 13.5 4.858-.104 8.523-3.375 9.6-13.5zm-77.106 6.192c1.125 6.9-4.318 6.376.388 14.618 4.937-4.957 2.323-9.416-.388-14.618zm60.726 0c-2.712 5.2-5.33 9.661-.393 14.618 4.705-8.242-.733-7.718.393-14.618zm-74.218 5.913c4.068 10.557 8.94 13.014 14.183 11.725-3.529-9.451-6.423-5.855-14.183-11.725zm87.706 0c-7.759 5.87-10.649 2.274-14.178 11.725 5.243 1.289 10.111-1.168 14.178-11.725zm-68.661 1.529c3.315 7.025-2.655 8.136 4.9 15.5 3.747-6.808-.411-10.775-4.9-15.5zm49.616 0c-4.489 4.726-8.65 8.692-4.895 15.5 7.55-7.364 1.58-8.475 4.895-15.5zm-41.969 5.936c5.8 6.388-.18 9.509 10.234 14.879 1.778-8.452-3.934-11.316-10.234-14.879zm34.329 0c-6.306 3.563-12.014 6.427-10.235 14.875 10.414-5.37 4.43-8.491 10.234-14.879zm-54.567 4.516c7.577 10.031 13.531 11.159 18.738 8.18-6.665-9.013-8.654-4.287-18.738-8.18zm74.8 0c-10.085 3.893-12.068-.833-18.732 8.18 5.205 2.979 11.154 1.85 18.732-8.18zm-50.908 9.411c-3.435-.013-6.525 1.78-13.638 1.269 11.309 8.2 18 7.463 22.566 2.6-4.066-3.011-6.577-3.863-8.928-3.872zm27.016 0c-2.35.009-4.858.861-8.923 3.872 4.562 4.86 11.257 5.593 22.566-2.6-7.113.511-10.208-1.282-13.643-1.269zm-16.721 4.341c.809.745 1.621 1.44 2.428 2.1-6.524 3.191-15.507 7.452-17.576 7.115l1.713 7.068c-.028-4.433 8.019-6.609 16.786-13.444 8.768 6.837 16.815 9.011 16.786 13.444l1.714-7.068c-2.069.337-11.052-3.923-17.577-7.115.808-.657 1.619-1.352 2.429-2.1-.938.459-2.106 1.036-3.352 1.647-1.245-.611-2.415-1.189-3.352-1.647z" fill="url(#f)"/></svg>